<?xml version="1.0" encoding="UTF-8" standalone="no"?>
<!-- Generator: Adobe Illustrator 15.1.0, SVG Export Plug-In . SVG Version: 6.00 Build 0)  -->

<svg
     xmlns:dc="http://purl.org/dc/elements/1.1/"
     xmlns:cc="http://creativecommons.org/ns#"
     xmlns:rdf="http://www.w3.org/1999/02/22-rdf-syntax-ns#"
     xmlns:svg="http://www.w3.org/2000/svg"
     xmlns="http://www.w3.org/2000/svg"
     xmlns:sodipodi="http://sodipodi.sourceforge.net/DTD/sodipodi-0.dtd"
     xmlns:inkscape="http://www.inkscape.org/namespaces/inkscape"
     version="1.1"
     x="0px"
     y="0px"
     width="8000px"
     height="2500px"
     viewBox="0 0 8000 2500"
     enable-background="new 0 0 8000 2500"
     xml:space="preserve"
     id="svg7209"
     inkscape:version="0.48.5 r10040"
     sodipodi:docname="logo_long_gray_on_black.svg"><metadata
     id="metadata7330"><rdf:RDF><cc:Work
             rdf:about=""><dc:format>image/svg+xml</dc:format><dc:type
                 rdf:resource="http://purl.org/dc/dcmitype/StillImage" /></cc:Work></rdf:RDF></metadata><defs
     id="defs7328">
	

		
	
			
			
			
			
			
			
			
			
			
			
			
			
			
			
			
			
			
			
			
			
			
			
			
			
			
			
			
		
	

		
	
			
			
			
			
			
			
			
			
			
			
			
			
			
			
		
	
	

		
		
		
		
	
		
		
	</defs><sodipodi:namedview
     pagecolor="#ffffff"
     bordercolor="#666666"
     borderopacity="1"
     objecttolerance="10"
     gridtolerance="10"
     guidetolerance="10"
     inkscape:pageopacity="0"
     inkscape:pageshadow="2"
     inkscape:window-width="1364"
     inkscape:window-height="796"
     id="namedview7326"
     showgrid="false"
     showborder="true"
     borderlayer="true"
     inkscape:showpageshadow="false"
     inkscape:zoom="0.158375"
     inkscape:cx="3014.9961"
     inkscape:cy="1250"
     inkscape:window-x="0"
     inkscape:window-y="0"
     inkscape:window-maximized="0"
     inkscape:current-layer="svg7209" />
<g
     id="Ideal_background">
	<g
     id="g7212">
		<rect
     x="113.0234"
     y="81.8838"
     width="7773.9531"
     height="2336.2324"
     id="rect7214" />
	</g>
</g>
<g
     id="Minimum_background">
	<rect
     x="444.5"
     y="407.5"
     width="7117"
     height="1691"
     id="rect7217" />
</g>
<path
     d="m 1094.5,582.5 c -87.6514,0 -169.7549,23.7461 -240.2368,65.1484 9.7129,17.7754 15.2368,38.168 15.2368,59.8516 0,69.0356 -55.9653,125 -125,125 -21.6836,0 -42.0757,-5.5234 -59.8516,-15.2368 C 643.2461,887.7451 619.5,969.8481 619.5,1057.5 c 0,262.3359 212.6646,475 474.9995,475 262.3364,0 475.0005,-212.6641 475.0005,-474.9995 0,-262.3359 -212.6641,-475.001 -475,-475.0005 z"
     id="path7221"
     inkscape:connector-curvature="0"
     style="fill:#999999" /><path
     d="m 1094.5,557.5 c -83.8296,0 -162.8364,20.6372 -232.229,57.0977 C 834.8008,579.8213 792.2588,557.5 744.5005,557.5 661.6572,557.5 594.5,624.6582 594.5,707.5005 c 0,47.7583 22.3218,90.2998 57.0977,117.77 C 615.1372,894.6636 594.5,973.6704 594.5,1057.5 c 0,276.1416 223.8569,500 499.9995,500 276.1431,0 500.0005,-223.8574 500.0005,-499.9995 0,-276.1436 -223.8574,-500.001 -500,-500.0005 z m -349.9995,50 c 55.2285,0 99.9995,44.771 99.9995,100 0,55.229 -44.772,100 -100,100 -55.2275,0 -100,-44.771 -100,-99.9995 C 644.5,652.271 689.271,607.5 744.5005,607.5 z m 349.999,900 c -248.5278,0 -449.9995,-201.4717 -449.9995,-450 0,-75.126 18.4272,-145.9404 50.9824,-208.2012 15.3613,5.3096 31.8511,8.2012 49.0176,8.2012 82.8418,0 150,-67.1572 150,-150 0,-17.167 -2.8916,-33.6563 -8.2012,-49.0181 C 948.5596,625.9272 1019.374,607.5 1094.5,607.5 c 248.5283,-5e-4 450,201.4717 450,450.0005 0,248.5278 -201.4717,449.9995 -450.0005,449.9995 z"
     id="path7223"
     inkscape:connector-curvature="0"
     style="fill:#ffffff" /><path
     d="m 1334.5508,993.2002 c 15.3096,-29.9819 23.9453,-63.9385 23.9443,-99.9131 0,-121.5024 -98.501,-219.9966 -220.0039,-219.9956 -117.6455,0.004 -213.7183,92.3477 -219.6987,208.5029 -116.1572,5.9829 -208.499,102.0571 -208.4995,219.7007 -10e-4,121.5039 98.4956,220.002 219.9985,220.002 35.9731,10e-4 69.9282,-8.6357 99.9092,-23.9434 39.2393,60.2871 107.2134,100.1553 184.5073,100.1543 121.5029,10e-4 220,-98.4961 220,-220 0,-77.2949 -39.8691,-145.269 -100.1572,-184.5078 z"
     id="path7226"
     inkscape:connector-curvature="0" /><path
     d="m 994.708,1177.708 c 0,-67.582 30.4829,-128.0356 78.4385,-168.3921 -30.2773,-46.8237 -82.9429,-77.8174 -142.8521,-77.8179 -93.8877,-0.001 -170.001,76.1089 -170.0015,169.998 -10e-4,93.8877 76.1099,170 169.9985,170.002 27.9458,0 54.3154,-6.7451 77.5732,-18.6934 -8.5096,-23.4345 -13.1566,-48.7216 -13.1566,-75.0966 z"
     id="path7228"
     inkscape:connector-curvature="0"
     style="fill:#666666;fill-opacity:1" /><path
     d="m 1114.7998,981.6528 c 29.9805,-15.3081 63.9355,-23.9448 99.9082,-23.9448 26.374,0 51.6611,4.647 75.0947,13.1567 11.9482,-23.2588 18.6943,-49.6294 18.6934,-77.5762 0,-93.8887 -76.1152,-169.9985 -170.0039,-169.9956 -91.0537,5e-4 -165.3828,71.5894 -169.7861,161.5503 61.1025,10.7628 113.5073,46.7437 146.0937,96.8096 z"
     id="path7230"
     inkscape:connector-curvature="0"
     style="fill:#666666;fill-opacity:1" /><circle
     cx="1214.708"
     cy="1177.709"
     r="170"
     id="circle7232"
     sodipodi:cx="1214.708"
     sodipodi:cy="1177.709"
     sodipodi:rx="170"
     sodipodi:ry="170"
     style="fill:#cccccc" />
<path
     style="fill:#cccccc"
     inkscape:connector-curvature="0"
     id="path7239"
     d="m 1891.4023,1558.1045 h 39.0332 v 300.5537 h -39.0332 v -139.6514 h -98.8838 v 139.6514 h -39.0332 v -300.5537 h 39.0332 v 127.0732 h 98.8838 v -127.0732 z" /><path
     style="fill:#cccccc"
     inkscape:connector-curvature="0"
     id="path7241"
     d="m 2016.3027,1635.7363 c 7.5156,-3.1777 15.4648,-5.7061 23.8535,-7.5898 8.3828,-1.877 17.4902,-2.8193 27.3232,-2.8193 20.2354,0 36.7158,6.2891 49.4424,18.8662 12.7188,12.5771 19.082,32.1689 19.082,58.7666 v 150.9277 c -10.4082,2.8936 -21.0342,5.2041 -31.877,6.9395 -10.8418,1.7344 -21.4678,2.6016 -31.877,2.6016 -10.4082,0 -20.167,-1.3008 -29.2744,-3.9033 -9.1074,-2.6016 -17.0635,-6.79 -23.8535,-12.5771 -6.7969,-5.7803 -12.2178,-13.0791 -16.2637,-21.9014 -4.0527,-8.8164 -6.0723,-19.585 -6.0723,-32.3115 0,-11.8516 1.8027,-22.1855 5.4219,-31.0088 3.6113,-8.8164 8.5996,-16.1895 14.9629,-22.1191 6.3564,-5.9229 13.8779,-10.4082 22.5518,-13.4443 8.6739,-3.0361 18.0664,-4.5537 28.1904,-4.5537 9.542,0 20.0928,1.1582 31.6602,3.4688 v -20.8174 c 0,-16.7646 -3.2529,-28.4746 -9.7578,-35.1299 -6.5059,-6.6475 -15.8301,-9.9746 -27.9736,-9.9746 -6.6553,0 -12.9434,0.6504 -18.8662,1.9512 -5.9297,1.3018 -12.2178,3.4023 -18.8662,6.2891 l -7.8066,-31.6605 z m 17.7823,156.5655 c 0,13.3027 3.4697,23.1357 10.4082,29.4922 6.9395,6.3633 16.7656,9.541 29.4922,9.541 7.8066,0 16.3311,-1.0098 25.5879,-3.0361 v -72.4277 c -8.6738,-2.3105 -17.2051,-3.4697 -25.5879,-3.4697 -5.4961,0 -10.7002,0.6514 -15.6133,1.9521 -4.9199,1.3008 -9.1826,3.4697 -12.7939,6.5049 -3.6191,3.0361 -6.4385,7.0889 -8.457,12.1445 -2.0265,5.0615 -3.0362,11.4921 -3.0362,19.2988 z" /><path
     style="fill:#cccccc"
     inkscape:connector-curvature="0"
     id="path7243"
     d="m 2213.1982,1637.4707 c 10.6943,-3.1777 22.2617,-5.8545 34.6963,-8.0234 12.4287,-2.168 23.8535,-3.252 34.2627,-3.252 11.2764,0 21.5361,1.5176 30.793,4.5537 9.25,3.0361 17.1309,8.1719 23.6357,15.3965 6.5059,7.2305 11.5615,16.9883 15.1797,29.2744 3.6123,12.293 5.4219,27.54 5.4219,45.7559 v 137.4824 h -37.2988 v -134.4473 c 0,-22.5518 -2.8936,-39.0332 -8.6738,-49.4414 -5.7871,-10.4092 -16.6299,-15.6133 -32.5273,-15.6133 -8.3896,0 -17.7822,1.4502 -28.1904,4.3369 v 195.165 h -37.2988 v -221.1874 z" /><path
     style="fill:#cccccc"
     inkscape:connector-curvature="0"
     id="path7245"
     d="m 2569.6973,1852.1523 c 0,16.1895 -2.1006,29.8516 -6.2881,40.9854 -4.1943,11.127 -9.9072,20.167 -17.1309,27.1055 -7.2314,6.9395 -15.6885,11.9951 -25.3721,15.1797 -9.6904,3.1787 -20.0244,4.7705 -31.0098,4.7705 -9.2568,0 -18.5068,-1.0156 -27.7568,-3.0352 -9.2559,-2.0264 -17.7813,-5.0625 -25.5879,-9.1084 l 7.8066,-31.2256 c 5.2041,2.8867 11.5605,5.4883 19.083,7.8066 7.5146,2.3105 15.3213,3.4688 23.4199,3.4688 14.1631,0 25.2969,-4.0518 33.3945,-12.1436 8.0908,-8.0977 12.1436,-21.9756 12.1436,-41.6348 v -10.8428 c -4.6279,2.0264 -9.541,3.6865 -14.7461,4.9873 -5.2041,1.3018 -11.1338,1.9521 -17.7813,1.9521 -27.1807,0 -47.0566,-9.3242 -59.6338,-27.9736 -12.5772,-18.6494 -18.8662,-45.0303 -18.8662,-79.1504 0,-18.2158 1.6602,-34.6211 4.9873,-49.2246 3.3213,-14.5967 8.5254,-27.0322 15.6133,-37.2988 7.082,-10.2598 16.2637,-18.0664 27.54,-23.4199 11.2764,-5.3467 25.0059,-8.0234 41.2021,-8.0234 10.6934,0 21.1768,1.085 31.4434,3.2529 10.2588,2.1689 19.4414,4.9883 27.5391,8.457 v 215.1153 z m -37.2979,-190.8281 c -4.0527,-1.1514 -7.9561,-1.9512 -11.71,-2.3848 -3.7607,-0.4336 -7.2305,-0.6504 -10.4082,-0.6504 -17.3486,0 -30,6.6543 -37.9492,19.9502 -7.9561,13.3018 -11.9268,34.9873 -11.9268,65.0547 0,27.1807 3.9033,46.3379 11.71,57.4648 7.8066,11.1348 18.9336,16.6982 33.3945,16.6982 4.9131,0 9.6094,-0.5762 14.0957,-1.7354 4.4795,-1.1514 8.7412,-2.7441 12.7939,-4.7705 v -149.6268 z" /><path
     style="fill:#cccccc"
     inkscape:connector-curvature="0"
     id="path7247"
     d="m 2891.9316,1745.0283 c 0,17.9316 -1.5928,34.1953 -4.7705,48.792 -3.1846,14.6035 -8.0234,27.1064 -14.5293,37.5146 -6.5049,10.4092 -14.7451,18.5068 -24.7207,24.2871 -9.9746,5.7803 -21.7598,8.6738 -35.3467,8.6738 -13.5938,0 -25.4453,-2.8936 -35.5635,-8.6738 -10.124,-5.7803 -18.4316,-13.8779 -24.9375,-24.2871 -6.5059,-10.4082 -11.3506,-22.9111 -14.5293,-37.5146 -3.1846,-14.5967 -4.7705,-30.8604 -4.7705,-48.792 0,-17.6318 1.5859,-33.8281 4.7705,-48.5742 3.1787,-14.7451 8.0234,-27.3906 14.5293,-37.9482 6.5059,-10.5518 14.8135,-18.7168 24.9375,-24.5039 10.1182,-5.7813 21.9697,-8.6748 35.5635,-8.6748 13.5869,0 25.3721,2.8936 35.3467,8.6748 9.9756,5.7871 18.2158,13.9521 24.7207,24.5039 6.5059,10.5576 11.3447,23.2031 14.5293,37.9482 3.1778,14.7461 4.7705,30.9424 4.7705,48.5742 z m -39.0332,0 c 0,-12.7188 -0.7246,-24.3545 -2.168,-34.9121 -1.4502,-10.5518 -3.7607,-19.6592 -6.9395,-27.3232 -3.1846,-7.6572 -7.373,-13.5869 -12.5771,-17.7822 -5.2041,-4.1875 -11.4258,-6.2881 -18.6494,-6.2881 -7.5215,0 -13.8105,2.1006 -18.8652,6.2881 -5.0625,4.1953 -9.2568,10.125 -12.5781,17.7822 -3.3271,7.6641 -5.7119,16.7715 -7.1553,27.3232 -1.4502,10.5576 -2.1689,22.1934 -2.1689,34.9121 0,12.7266 0.7188,24.3623 2.1689,34.9131 1.4434,10.5586 3.8281,19.5908 7.1553,27.1064 3.3213,7.5225 7.5156,13.377 12.5781,17.5645 5.0547,4.1953 11.3438,6.2891 18.8652,6.2891 7.2236,0 13.4453,-2.0938 18.6494,-6.2891 5.2041,-4.1875 9.3926,-10.042 12.5771,-17.5645 3.1787,-7.5156 5.4893,-16.5479 6.9395,-27.1064 1.4434,-10.5508 2.168,-22.1865 2.168,-34.9131 z" /><path
     style="fill:#cccccc"
     inkscape:connector-curvature="0"
     id="path7249"
     d="m 3099.6729,1852.1523 c -3.7607,1.4502 -8.3154,2.8193 -13.6621,4.1201 -5.3535,1.3018 -10.9912,2.4531 -16.9141,3.4697 -5.9297,1.0098 -11.8584,1.877 -17.7813,2.6025 -5.9297,0.7178 -11.3506,1.084 -16.2637,1.084 -11.8594,0 -22.7021,-1.375 -32.5283,-4.1201 -9.832,-2.7441 -18.2148,-7.5898 -25.1543,-14.5283 -6.9395,-6.9395 -12.293,-16.4063 -16.0469,-28.4082 -3.7607,-11.9941 -5.6377,-27.1055 -5.6377,-45.3213 v -140.085 h 37.2979 V 1769.75 c 0,22.2676 3.3955,37.9482 10.1924,47.0566 6.79,9.1074 17.1309,13.6611 31.0088,13.6611 4.6221,0 9.25,-0.2168 13.8789,-0.6504 4.6211,-0.4336 9.3926,-1.3691 14.3125,-2.8193 v -196.0322 h 37.2979 v 221.1865 z" /><path
     style="fill:#cccccc"
     inkscape:connector-curvature="0"
     id="path7251"
     d="m 3213.7334,1630.9658 h 57.249 v 32.0938 h -57.249 v 125.3389 c 0,15.6133 2.8193,26.5303 8.457,32.7451 5.6387,6.2207 13.2285,9.3242 22.7695,9.3242 4.9131,0 9.6094,-0.7188 14.0957,-2.1689 4.4785,-1.4434 8.3076,-3.1777 11.4922,-5.2041 l 7.373,29.9258 c -11.8584,6.9385 -24.4355,10.4082 -37.7314,10.4082 -21.4004,0 -37.373,-5.9971 -47.9238,-17.998 -10.5576,-11.9951 -15.8301,-31.877 -15.8301,-59.6338 v -215.9824 l 37.2979,-6.5059 v 67.6571 z" /><path
     style="fill:#cccccc"
     inkscape:connector-curvature="0"
     id="path7253"
     d="m 3372.4658,1809.2168 c 0.2842,2.3174 0.4336,4.5537 0.4336,6.7217 0,2.1689 0,4.4121 0,6.7227 0,18.5068 -2.6025,36.2813 -7.8066,53.3447 -5.2041,17.0566 -12.293,33.5371 -21.251,49.4424 l -26.4561,-7.8066 c 7.2236,-14.7461 11.9951,-29.709 14.3125,-44.8877 2.3105,-15.1797 3.4697,-29.418 3.4697,-42.7197 0,-3.7549 -0.075,-7.373 -0.2168,-10.8428 -0.1494,-3.4697 -0.3662,-6.79 -0.6514,-9.9746 h 38.1661 z" /><path
     style="fill:#cccccc"
     inkscape:connector-curvature="0"
     id="path7255"
     d="m 3684.7246,1558.1045 h 39.0332 v 300.5537 h -39.0332 v -139.6514 h -98.8838 v 139.6514 h -39.0332 v -300.5537 h 39.0332 v 127.0732 h 98.8838 v -127.0732 z" /><path
     style="fill:#cccccc"
     inkscape:connector-curvature="0"
     id="path7257"
     d="m 3809.626,1635.7363 c 7.5156,-3.1777 15.4648,-5.7061 23.8535,-7.5898 8.3828,-1.877 17.4902,-2.8193 27.3232,-2.8193 20.2354,0 36.7158,6.2891 49.4424,18.8662 12.7188,12.5771 19.082,32.1689 19.082,58.7666 v 150.9277 c -10.4082,2.8936 -21.0342,5.2041 -31.877,6.9395 -10.8418,1.7344 -21.4678,2.6016 -31.877,2.6016 -10.4082,0 -20.167,-1.3008 -29.2744,-3.9033 -9.1074,-2.6016 -17.0635,-6.79 -23.8535,-12.5771 -6.7969,-5.7803 -12.2178,-13.0791 -16.2637,-21.9014 -4.0527,-8.8164 -6.0723,-19.585 -6.0723,-32.3115 0,-11.8516 1.8027,-22.1855 5.4219,-31.0088 3.6113,-8.8164 8.5996,-16.1895 14.9629,-22.1191 6.3564,-5.9229 13.8779,-10.4082 22.5518,-13.4443 8.6739,-3.0361 18.0664,-4.5537 28.1904,-4.5537 9.542,0 20.0928,1.1582 31.6602,3.4688 v -20.8174 c 0,-16.7646 -3.2529,-28.4746 -9.7578,-35.1299 -6.5059,-6.6475 -15.8301,-9.9746 -27.9736,-9.9746 -6.6553,0 -12.9434,0.6504 -18.8662,1.9512 -5.9297,1.3018 -12.2178,3.4023 -18.8662,6.2891 l -7.8066,-31.6605 z m 17.7822,156.5655 c 0,13.3027 3.4697,23.1357 10.4082,29.4922 6.9395,6.3633 16.7656,9.541 29.4922,9.541 7.8066,0 16.3311,-1.0098 25.5879,-3.0361 v -72.4277 c -8.6738,-2.3105 -17.2051,-3.4697 -25.5879,-3.4697 -5.4961,0 -10.7002,0.6514 -15.6133,1.9521 -4.9199,1.3008 -9.1826,3.4697 -12.7939,6.5049 -3.6191,3.0361 -6.4385,7.0889 -8.457,12.1445 -2.0264,5.0615 -3.0362,11.4921 -3.0362,19.2988 z" /><path
     style="fill:#cccccc"
     inkscape:connector-curvature="0"
     id="path7259"
     d="m 4075.9141,1864.2959 c -15.6133,0 -28.624,-3.0352 -39.0332,-9.1074 -10.4092,-6.0713 -18.8662,-14.3799 -25.3711,-24.9375 -6.5059,-10.5508 -11.1338,-23.0537 -13.8789,-37.5156 -2.751,-14.4541 -4.1201,-30.21 -4.1201,-47.2725 0,-37.583 6.8652,-67.0068 20.6006,-88.2588 13.7295,-21.251 34.4795,-31.877 62.2363,-31.877 8.3828,0 15.8975,1.0166 22.5527,3.0361 6.6475,2.0264 12.8613,4.6289 18.6484,7.8066 l -9.541,30.793 c -8.9658,-5.7803 -18.9404,-8.6738 -29.9258,-8.6738 -15.6123,0 -27.1055,7.0879 -34.4785,21.251 -7.373,14.1699 -11.0596,36.1465 -11.0596,65.9229 0,12.4346 0.7188,23.9277 2.1689,34.4785 1.4434,10.5586 3.9707,19.5908 7.5889,27.1064 3.6123,7.5225 8.3828,13.4443 14.3125,17.7822 5.9229,4.3369 13.5127,6.5049 22.7695,6.5049 6.3564,0 12.0684,-0.793 17.1309,-2.3848 5.0557,-1.5859 9.9004,-3.6865 14.5293,-6.2891 l 8.2402,29.0576 c -4.6289,3.1855 -10.7754,6.0723 -18.4326,8.6738 -7.664,2.6027 -15.9785,3.9035 -24.9374,3.9035 z" /><path
     style="fill:#cccccc"
     inkscape:connector-curvature="0"
     id="path7261"
     d="m 4312.7129,1630.9658 c -12.1572,20.7969 -23.7998,39.7852 -34.9404,56.9707 -11.1406,17.1855 -22.2061,33.2793 -33.1982,48.2959 6.9395,8.1055 14.0273,17.2266 21.2646,27.3506 7.2314,10.1309 14.1768,20.6211 20.832,31.4775 6.6543,10.8555 12.8682,21.7051 18.6553,32.5605 5.7871,10.8564 10.707,21.1973 14.7598,31.0371 h -40.7412 c -4.3369,-9.5547 -9.3984,-19.5508 -15.1865,-29.9795 -5.7871,-10.4287 -11.8584,-20.6416 -18.2217,-30.6367 -6.3633,-9.9951 -12.7266,-19.4824 -19.0898,-28.4619 -6.3701,-8.9785 -12.2988,-16.5146 -17.7881,-22.5996 v 111.6777 h -37.2988 v -330.0459 l 37.2988,-6.5049 v 206.6572 c 5.1641,-6.9248 10.6934,-14.7119 16.5752,-23.3652 5.8818,-8.6533 11.6963,-17.3818 17.4434,-26.1777 5.7393,-8.7959 11.1943,-17.3818 16.3584,-25.751 5.1641,-8.3623 9.4736,-15.8643 12.9229,-22.5049 h 40.3543 z" /><path
     style="fill:#cccccc"
     inkscape:connector-curvature="0"
     id="path7263"
     d="m 4497.46,1832.2021 c 10.9854,0 19.2998,-3.1035 24.9385,-9.3242 5.6377,-6.2139 8.457,-14.3799 8.457,-24.5039 0,-6.3564 -1.1592,-11.7773 -3.4697,-16.2637 -2.3174,-4.4795 -5.3535,-8.457 -9.1074,-11.9268 -3.7617,-3.4697 -8.0986,-6.5732 -13.0117,-9.3252 -4.9189,-2.7441 -9.832,-5.7051 -14.7451,-8.8906 -4.9199,-2.8867 -9.6904,-6.2881 -14.3125,-10.1914 -4.6279,-3.9033 -8.748,-8.3828 -12.3604,-13.4453 -3.6191,-5.0547 -6.5059,-10.8418 -8.6738,-17.3477 -2.1689,-6.5059 -3.2529,-14.0957 -3.2529,-22.7695 0,-18.791 5.8545,-33.9707 17.5645,-45.5381 11.71,-11.5605 27.54,-17.3486 47.4902,-17.3486 8.3828,0 16.332,1.085 23.8535,3.2529 7.5156,2.1689 13.7295,4.5537 18.6494,7.1563 l -8.2402,29.9258 c -5.2041,-2.8877 -10.4092,-5.0557 -15.6133,-6.5059 -5.2041,-1.4434 -10.8428,-2.1689 -16.9141,-2.1689 -9.2568,0 -16.6299,2.6768 -22.1191,8.0234 -5.4951,5.3535 -8.2402,13.0859 -8.2402,23.2031 0,5.7871 1.0098,10.7754 3.0361,14.9629 2.0195,4.1943 4.6963,7.9561 8.0234,11.2764 3.3203,3.3271 7.0811,6.4375 11.2764,9.3242 4.1875,2.8936 8.5996,5.6387 13.2275,8.2402 5.4893,3.1855 10.9102,6.6553 16.2637,10.4092 5.3467,3.7607 10.1172,8.1729 14.3125,13.2275 4.1875,5.0625 7.5898,10.9922 10.1914,17.7822 2.6025,6.7969 3.9033,14.9619 3.9033,24.5039 0,19.9502 -5.8545,35.9971 -17.5645,48.1406 -11.71,12.1435 -28.8408,18.2148 -51.3936,18.2148 -11.5674,0 -21.9766,-1.5918 -31.2266,-4.7705 -9.2568,-3.1777 -16.1963,-6.0713 -20.8174,-8.6738 l 7.8066,-30.793 c 4.3369,2.3184 10.1914,4.9199 17.5645,7.8066 7.3731,2.8938 15.5391,4.3371 24.504,4.3371 z" /><path
     style="fill:#cccccc"
     inkscape:connector-curvature="0"
     id="path7265"
     d="m 4660.5264,1630.9658 h 57.249 v 32.0938 h -57.249 v 125.3389 c 0,15.6133 2.8193,26.5303 8.457,32.7451 5.6387,6.2207 13.2285,9.3242 22.7695,9.3242 4.9131,0 9.6094,-0.7188 14.0957,-2.1689 4.4785,-1.4434 8.3076,-3.1777 11.4922,-5.2041 l 7.373,29.9258 c -11.8584,6.9385 -24.4355,10.4082 -37.7314,10.4082 -21.4004,0 -37.373,-5.9971 -47.9238,-17.998 -10.5576,-11.9951 -15.8301,-31.877 -15.8301,-59.6338 v -215.9824 l 37.2979,-6.5059 v 67.6571 z" /><path
     style="fill:#cccccc"
     inkscape:connector-curvature="0"
     id="path7267"
     d="m 4918.1445,1852.1523 c -3.7607,1.4502 -8.3154,2.8193 -13.6621,4.1201 -5.3535,1.3018 -10.9912,2.4531 -16.9141,3.4697 -5.9297,1.0098 -11.8584,1.877 -17.7813,2.6025 -5.9297,0.7178 -11.3506,1.084 -16.2637,1.084 -11.8594,0 -22.7021,-1.375 -32.5283,-4.1201 -9.832,-2.7441 -18.2148,-7.5898 -25.1543,-14.5283 -6.9395,-6.9395 -12.293,-16.4063 -16.0469,-28.4082 -3.7607,-11.9941 -5.6377,-27.1055 -5.6377,-45.3213 v -140.085 h 37.2979 V 1769.75 c 0,22.2676 3.3955,37.9482 10.1924,47.0566 6.79,9.1074 17.1309,13.6611 31.0088,13.6611 4.6221,0 9.25,-0.2168 13.8789,-0.6504 4.6211,-0.4336 9.3926,-1.3691 14.3115,-2.8193 v -196.0322 h 37.2988 v 221.1865 z" /><path
     style="fill:#cccccc"
     inkscape:connector-curvature="0"
     id="path7269"
     d="m 5063.8652,1522.1074 c 8.3828,0 15.7559,0.8672 22.1191,2.6016 6.3564,1.7354 11.5605,3.6191 15.6133,5.6387 l -7.8066,29.4912 c -4.0527,-2.0195 -8.2402,-3.5371 -12.5781,-4.5537 -4.3369,-1.0098 -8.9648,-1.5176 -13.8779,-1.5176 -6.6543,0 -12.1436,1.1582 -16.4805,3.4688 -4.3369,2.3184 -7.6641,5.4961 -9.9756,9.542 -2.3174,4.0518 -3.9033,8.8906 -4.7705,14.5283 -0.8672,5.6387 -1.3008,11.6426 -1.3008,17.999 v 31.6602 h 58.5498 v 32.0938 h -58.5498 v 195.5986 h -37.2988 v -259.3525 c 0,-24.5723 5.4893,-43.5869 16.4814,-57.0313 10.9844,-13.4454 27.6075,-20.1671 49.875,-20.1671 z m 132.7119,0 c 8.3828,0 15.7559,0.8672 22.1191,2.6016 6.3564,1.7354 11.5605,3.6191 15.6133,5.6387 l -7.8066,29.4912 c -4.0527,-2.0195 -8.2402,-3.5371 -12.5771,-4.5537 -4.3369,-1.0098 -8.9658,-1.5176 -13.8789,-1.5176 -6.6543,0 -12.1436,1.1582 -16.4805,3.4688 -4.3369,2.3184 -7.6641,5.4961 -9.9746,9.542 -2.3184,4.0518 -3.9033,8.8906 -4.7715,14.5283 -0.8672,5.6387 -1.3008,11.6426 -1.3008,17.999 v 31.6602 h 58.5498 v 32.0938 h -58.5498 v 195.5986 h -37.2979 v -259.3525 c 0,-24.5723 5.4893,-43.5869 16.4805,-57.0313 10.9844,-13.4454 27.6075,-20.1671 49.875,-20.1671 z" /><path
     style="fill:#cccccc"
     inkscape:connector-curvature="0"
     id="path7271"
     d="m 5286.7871,1809.2168 c 0.2842,2.3174 0.4336,4.5537 0.4336,6.7217 0,2.1689 0,4.4121 0,6.7227 0,18.5068 -2.6025,36.2813 -7.8066,53.3447 -5.2041,17.0566 -12.293,33.5371 -21.251,49.4424 l -26.4561,-7.8066 c 7.2236,-14.7461 11.9951,-29.709 14.3125,-44.8877 2.3105,-15.1797 3.4697,-29.418 3.4697,-42.7197 0,-3.7549 -0.075,-7.373 -0.2168,-10.8428 -0.1494,-3.4697 -0.3662,-6.79 -0.6514,-9.9746 h 38.1661 z" /><path
     style="fill:#cccccc"
     inkscape:connector-curvature="0"
     id="path7273"
     d="m 5599.0459,1558.1045 h 39.0332 v 300.5537 h -39.0332 v -139.6514 h -98.8838 v 139.6514 h -39.0332 v -300.5537 h 39.0332 v 127.0732 h 98.8838 v -127.0732 z" /><path
     style="fill:#cccccc"
     inkscape:connector-curvature="0"
     id="path7275"
     d="m 5746.0654,1755.8711 c 0.2842,10.9922 1.3008,21.0342 3.0361,30.1426 1.7344,9.1074 4.5537,17.0635 8.457,23.8535 3.9033,6.7969 9.1074,12.0752 15.6133,15.8301 6.5049,3.7607 14.8135,5.6377 24.9375,5.6377 8.3828,0 16.1143,-1.2266 23.2031,-3.6865 7.0811,-2.4531 12.2109,-4.5537 15.3965,-6.2881 l 6.9385,29.9248 c -3.7607,2.6025 -10.0488,5.4219 -18.8652,8.457 -8.8232,3.0361 -19.2998,4.5537 -31.4434,4.5537 -15.9053,0 -29.2754,-2.8936 -40.1172,-8.6738 -10.8428,-5.7803 -19.666,-13.8779 -26.4561,-24.2871 -6.7969,-10.4082 -11.6416,-22.8369 -14.5293,-37.2979 -2.8936,-14.4551 -4.3369,-30.3594 -4.3369,-47.707 0,-41.9199 6.9395,-72.5703 20.8184,-91.9443 13.8779,-19.3672 32.2354,-29.0586 55.0791,-29.0586 25.7314,0 43.9463,9.6914 54.6465,29.0586 10.6934,19.374 16.0469,46.5547 16.0469,81.5352 0,3.1855 0,6.4375 0,9.7588 0,3.3271 -0.1494,6.7217 -0.4336,10.1914 h -107.9912 z m 37.7315,-98.8838 c -12.4346,0 -21.4678,6.2217 -27.1055,18.6494 -5.6387,12.4355 -9.04,29.0576 -10.1924,49.876 h 68.958 c 0,-21.1025 -2.168,-37.7998 -6.5049,-50.0928 -4.3369,-12.2861 -12.7265,-18.4326 -25.1552,-18.4326 z" /><path
     style="fill:#cccccc"
     inkscape:connector-curvature="0"
     id="path7277"
     d="m 5980.6924,1862.9951 c -21.4004,-0.583 -36.7217,-5.8545 -45.9717,-15.8301 -9.2568,-9.9746 -13.8789,-25.8047 -13.8789,-47.4902 v -271.0625 l 37.2988,-6.5049 v 278.4346 c 0,10.125 2.0195,17.4229 6.0713,21.9023 4.0459,4.4863 11.127,7.5898 21.251,9.3242 l -4.7705,31.2266 z" /><path
     style="fill:#cccccc"
     inkscape:connector-curvature="0"
     id="path7279"
     d="m 6076.1055,1938.8926 h -37.2988 v -301.8555 c 8.0918,-3.4688 17.2734,-6.2881 27.54,-8.457 10.2598,-2.168 20.7432,-3.2529 31.4434,-3.2529 15.8984,0 29.5596,2.752 40.9844,8.2412 11.4189,5.4951 20.6689,13.377 27.7568,23.6357 7.082,10.2666 12.2861,22.8447 15.6133,37.7324 3.3213,14.8945 4.9883,31.877 4.9883,50.96 0,38.457 -6.1465,67.8057 -18.4326,88.041 -12.293,20.2412 -32.3105,30.3584 -60.0674,30.3584 -6.6543,0 -12.5771,-0.6504 -17.7822,-1.9512 -5.2041,-1.3008 -10.124,-3.1104 -14.7451,-5.4209 v 81.9688 z m 0,-114.4971 c 8.3828,4.6289 17.3477,6.9395 26.8887,6.9395 7.2246,0 13.5879,-1.4434 19.083,-4.3369 5.4893,-2.8867 10.1924,-7.6572 14.0957,-14.3125 3.9033,-6.6475 6.8643,-15.4639 8.8906,-26.4551 2.0195,-10.9854 3.0361,-24.5723 3.0361,-40.7676 0,-31.2266 -3.9785,-53.5625 -11.9268,-67.0068 -7.9561,-13.4453 -20.6006,-20.167 -37.9492,-20.167 -3.1846,0 -6.6543,0.2168 -10.4082,0.6504 -3.7617,0.4336 -7.665,1.2334 -11.71,2.3848 v 163.0712 z" /><path
     style="fill:#cccccc"
     inkscape:connector-curvature="0"
     id="path7281"
     d="m 6496.7891,1745.0283 c 0,17.9316 -1.5928,34.1953 -4.7705,48.792 -3.1846,14.6035 -8.0234,27.1064 -14.5293,37.5146 -6.5049,10.4092 -14.7451,18.5068 -24.7207,24.2871 -9.9746,5.7803 -21.7598,8.6738 -35.3467,8.6738 -13.5938,0 -25.4453,-2.8936 -35.5635,-8.6738 -10.124,-5.7803 -18.4316,-13.8779 -24.9375,-24.2871 -6.5059,-10.4082 -11.3506,-22.9111 -14.5293,-37.5146 -3.1846,-14.5967 -4.7705,-30.8604 -4.7705,-48.792 0,-17.6318 1.5859,-33.8281 4.7705,-48.5742 3.1787,-14.7451 8.0234,-27.3906 14.5293,-37.9482 6.5059,-10.5518 14.8135,-18.7168 24.9375,-24.5039 10.1182,-5.7813 21.9697,-8.6748 35.5635,-8.6748 13.5869,0 25.3721,2.8936 35.3467,8.6748 9.9756,5.7871 18.2158,13.9521 24.7207,24.5039 6.5059,10.5576 11.3447,23.2031 14.5293,37.9482 3.1777,14.7461 4.7705,30.9424 4.7705,48.5742 z m -39.0332,0 c 0,-12.7188 -0.7246,-24.3545 -2.168,-34.9121 -1.4502,-10.5518 -3.7607,-19.6592 -6.9395,-27.3232 -3.1846,-7.6572 -7.373,-13.5869 -12.5771,-17.7822 -5.2041,-4.1875 -11.4258,-6.2881 -18.6494,-6.2881 -7.5215,0 -13.8105,2.1006 -18.8652,6.2881 -5.0625,4.1953 -9.2568,10.125 -12.5781,17.7822 -3.3271,7.6641 -5.7119,16.7715 -7.1553,27.3232 -1.4502,10.5576 -2.1689,22.1934 -2.1689,34.9121 0,12.7266 0.7188,24.3623 2.1689,34.9131 1.4434,10.5586 3.8281,19.5908 7.1553,27.1064 3.3213,7.5225 7.5156,13.377 12.5781,17.5645 5.0547,4.1953 11.3438,6.2891 18.8652,6.2891 7.2236,0 13.4453,-2.0938 18.6494,-6.2891 5.2041,-4.1875 9.3926,-10.042 12.5771,-17.5645 3.1787,-7.5156 5.4893,-16.5479 6.9395,-27.1064 1.4434,-10.5508 2.168,-22.1865 2.168,-34.9131 z" /><path
     style="fill:#cccccc"
     inkscape:connector-curvature="0"
     id="path7283"
     d="m 6598.2734,1630.9658 h 57.249 v 32.0938 h -57.249 v 125.3389 c 0,15.6133 2.8193,26.5303 8.457,32.7451 5.6387,6.2207 13.2285,9.3242 22.7695,9.3242 4.9131,0 9.6094,-0.7188 14.0957,-2.1689 4.4785,-1.4434 8.3076,-3.1777 11.4922,-5.2041 l 7.373,29.9258 c -11.8584,6.9385 -24.4355,10.4082 -37.7314,10.4082 -21.4004,0 -37.373,-5.9971 -47.9238,-17.998 -10.5576,-11.9951 -15.8301,-31.877 -15.8301,-59.6338 v -215.9824 l 37.2979,-6.5059 v 67.6571 z" /><path
     style="fill:#cccccc"
     inkscape:connector-curvature="0"
     id="path7285"
     d="m 6714.9385,1858.6582 v -330.0459 l 37.2988,-6.5049 v 110.1592 c 5.4893,-1.7344 11.4932,-3.1777 17.998,-4.3369 6.5059,-1.1523 13.0791,-1.7344 19.7334,-1.7344 9.542,0 18.5,1.5176 26.8896,4.5537 8.3828,3.0361 15.6807,8.1719 21.9023,15.3965 6.2139,7.2305 11.127,16.9883 14.7451,29.2744 3.6123,12.293 5.4219,27.54 5.4219,45.7559 v 137.4824 h -37.2988 v -134.4473 c 0,-22.5518 -2.8936,-39.0332 -8.6738,-49.4414 -5.7871,-10.4092 -16.6299,-15.6133 -32.5273,-15.6133 -8.3896,0 -17.7822,1.4502 -28.1904,4.3369 v 195.165 h -37.2988 z" /><path
     style="fill:#cccccc"
     inkscape:connector-curvature="0"
     id="path7287"
     d="m 6961.7119,1755.8711 c 0.2842,10.9922 1.3008,21.0342 3.0361,30.1426 1.7344,9.1074 4.5537,17.0635 8.457,23.8535 3.9033,6.7969 9.1074,12.0752 15.6133,15.8301 6.5049,3.7607 14.8135,5.6377 24.9375,5.6377 8.3828,0 16.1143,-1.2266 23.2031,-3.6865 7.0811,-2.4531 12.2109,-4.5537 15.3965,-6.2881 l 6.9385,29.9248 c -3.7607,2.6025 -10.0488,5.4219 -18.8652,8.457 -8.8232,3.0361 -19.2998,4.5537 -31.4434,4.5537 -15.9053,0 -29.2754,-2.8936 -40.1172,-8.6738 -10.8428,-5.7803 -19.666,-13.8779 -26.4561,-24.2871 -6.7969,-10.4082 -11.6416,-22.8369 -14.5293,-37.2979 -2.8936,-14.4551 -4.3369,-30.3594 -4.3369,-47.707 0,-41.9199 6.9395,-72.5703 20.8184,-91.9443 13.8779,-19.3672 32.2354,-29.0586 55.0791,-29.0586 25.7314,0 43.9463,9.6914 54.6465,29.0586 10.6934,19.374 16.0469,46.5547 16.0469,81.5352 0,3.1855 0,6.4375 0,9.7588 0,3.3271 -0.1494,6.7217 -0.4336,10.1914 h -107.9912 z m 37.7315,-98.8838 c -12.4346,0 -21.4678,6.2217 -27.1055,18.6494 -5.6387,12.4355 -9.04,29.0576 -10.1924,49.876 h 68.958 c 0,-21.1025 -2.168,-37.7998 -6.5049,-50.0928 -4.3369,-12.2861 -12.7265,-18.4326 -25.1552,-18.4326 z" /><path
     style="fill:#cccccc"
     inkscape:connector-curvature="0"
     id="path7289"
     d="m 7235.8066,1664.7939 c -9.2568,-4.0449 -19.665,-6.0713 -31.2266,-6.0713 -10.7002,0 -20.6748,1.8838 -29.9248,5.6377 v 194.2979 h -37.2988 v -217.7178 c 8.3828,-4.0449 17.999,-7.4404 28.8418,-10.1914 10.8418,-2.7451 22.7686,-4.1201 35.7803,-4.1201 6.9385,0 13.8779,0.4336 20.8174,1.3008 6.9395,0.8672 13.4443,2.46 19.5166,4.7705 l -6.5059,32.0937 z" /><path
     style="fill:#cccccc"
     inkscape:connector-curvature="0"
     id="path7291"
     d="m 7323.4082,1832.2021 c 10.9854,0 19.2998,-3.1035 24.9385,-9.3242 5.6377,-6.2139 8.457,-14.3799 8.457,-24.5039 0,-6.3564 -1.1592,-11.7773 -3.4697,-16.2637 -2.3174,-4.4795 -5.3535,-8.457 -9.1074,-11.9268 -3.7617,-3.4697 -8.0986,-6.5732 -13.0117,-9.3252 -4.9189,-2.7441 -9.832,-5.7051 -14.7451,-8.8906 -4.9199,-2.8867 -9.6904,-6.2881 -14.3125,-10.1914 -4.6279,-3.9033 -8.748,-8.3828 -12.3604,-13.4453 -3.6191,-5.0547 -6.5059,-10.8418 -8.6738,-17.3477 -2.1689,-6.5059 -3.2529,-14.0957 -3.2529,-22.7695 0,-18.791 5.8545,-33.9707 17.5645,-45.5381 11.71,-11.5605 27.54,-17.3486 47.4902,-17.3486 8.3828,0 16.332,1.085 23.8535,3.2529 7.5156,2.1689 13.7295,4.5537 18.6494,7.1563 l -8.2402,29.9258 c -5.2041,-2.8877 -10.4092,-5.0557 -15.6133,-6.5059 -5.2041,-1.4434 -10.8428,-2.1689 -16.9141,-2.1689 -9.2568,0 -16.6299,2.6768 -22.1191,8.0234 -5.4951,5.3535 -8.2402,13.0859 -8.2402,23.2031 0,5.7871 1.0098,10.7754 3.0361,14.9629 2.0195,4.1943 4.6963,7.9561 8.0234,11.2764 3.3203,3.3271 7.0811,6.4375 11.2764,9.3242 4.1875,2.8936 8.5996,5.6387 13.2275,8.2402 5.4893,3.1855 10.9102,6.6553 16.2637,10.4092 5.3467,3.7607 10.1172,8.1729 14.3125,13.2275 4.1875,5.0625 7.5898,10.9922 10.1914,17.7822 2.6025,6.7969 3.9033,14.9619 3.9033,24.5039 0,19.9502 -5.8545,35.9971 -17.5645,48.1406 -11.71,12.1435 -28.8408,18.2148 -51.3936,18.2148 -11.5674,0 -21.9766,-1.5918 -31.2266,-4.7705 -9.2568,-3.1777 -16.1963,-6.0713 -20.8174,-8.6738 l 7.8066,-30.793 c 4.3369,2.3184 10.1914,4.9199 17.5645,7.8066 7.3731,2.8938 15.5392,4.3371 24.504,4.3371 z" />
<path
     style="fill:#999999"
     inkscape:connector-curvature="0"
     id="path7298"
     d="m 2086.2275,673.708 h 94 v 724 h -94 v -336 h -238 v 336 h -94 v -724 h 94 v 306 h 238 v -306 z" /><path
     style="fill:#999999"
     inkscape:connector-curvature="0"
     id="path7300"
     d="m 2510.2109,1008.0205 c 34.9063,12.5625 61.9688,34.6875 81.1875,66.4063 19.2031,31.7188 28.8125,72.6563 28.8125,122.8438 0,66.9219 -16.1875,119.7188 -48.5313,158.4063 -32.3594,38.6875 -81.25,58.0313 -146.6563,58.0313 -25.75,0 -50.7969,-3.8438 -75.1406,-11.4844 -24.3594,-7.6563 -45.5781,-17.7656 -63.6719,-30.3125 l 23.9844,-72.7344 c 15.9844,9.75 32.8438,18.1094 50.5781,25.0781 17.7188,6.9688 36.3281,10.4531 55.7969,10.4531 35.4531,0 63.0938,-11 82.9063,-33 19.8125,-22 29.7344,-57.1094 29.7344,-105.3281 0,-48.2031 -10.9688,-84.5313 -32.9063,-108.9844 -21.9375,-24.4531 -56.9063,-36.6875 -104.9375,-36.6875 h -27.1563 v -76 h 22.9375 c 41.7188,0 72.6563,-11.1719 92.8125,-33.5469 20.1563,-22.3594 30.25,-53.4531 30.25,-93.2969 0,-37.7188 -8,-65.8438 -24,-84.375 -16,-18.5156 -37.2031,-27.7813 -63.6406,-27.7813 -18.0938,0 -35.2969,3.4844 -51.6406,10.4531 -16.3437,6.9687 -30.4375,15.6875 -42.25,26.125 l -35.4688,-65.4219 c 18.0938,-16.7188 39.5,-29.25 64.2188,-37.6094 24.7188,-8.3594 49.25,-12.5469 73.625,-12.5469 54.2813,0 96.0469,17.0781 125.2969,51.2344 29.2344,34.1563 43.8594,79.4688 43.8594,135.9219 0,39.7344 -7.8594,73.375 -23.5469,100.9063 -15.7031,27.5313 -37.8593,48.625 -66.4531,63.25 z" /><path
     style="fill:#999999"
     inkscape:connector-curvature="0"
     id="path7302"
     d="m 3254.2793,1317.708 v 80 h -323 v -724 h 94 v 644 h 229 z" /><path
     style="fill:#999999"
     inkscape:connector-curvature="0"
     id="path7304"
     d="m 3343.0537,860.7861 c 18.1406,-7.6563 37.3281,-13.75 57.5781,-18.2813 20.25,-4.5313 42.2344,-6.7969 65.9844,-6.7969 48.8594,0 88.6406,15.1719 119.3594,45.4844 30.7188,30.3281 46.0781,77.5469 46.0781,141.6719 v 363.8438 c -25.125,6.9688 -50.7813,12.5313 -76.9375,16.7344 -26.1719,4.1719 -51.8125,6.2656 -76.9375,6.2656 -25.125,0 -48.6719,-3.1406 -70.6563,-9.4063 -21.9844,-6.2813 -41.1719,-16.3906 -57.5625,-30.3281 -16.4063,-13.9375 -29.4844,-31.5469 -39.25,-52.8125 -9.7813,-21.2656 -14.6563,-47.25 -14.6563,-77.9375 0,-28.5781 4.3594,-53.5 13.0781,-74.7656 8.7187,-21.2656 20.75,-39.0469 36.0938,-53.3438 15.3438,-14.2813 33.4844,-25.0938 54.4219,-32.4219 20.9219,-7.3125 43.5938,-10.9844 68.0156,-10.9844 23.0156,0 48.4844,2.7969 76.3906,8.3594 v -50.0313 c 0,-40.2656 -7.8594,-68.3906 -23.5625,-84.3594 -15.7031,-15.9688 -38.2031,-23.9688 -67.5156,-23.9688 -16.0625,0 -31.2344,1.5781 -45.5469,4.7031 -14.3125,3.1406 -29.4844,8.1875 -45.5313,15.1563 l -18.8436,-76.7811 z m 43,377.4688 c 0,32.1875 8.3594,55.9844 25.1094,71.375 16.7344,15.3906 40.4531,23.0781 71.1563,23.0781 18.8281,0 39.4063,-2.4375 61.7344,-7.3281 v -175.2813 c -20.9375,-5.5938 -41.5156,-8.3906 -61.7344,-8.3906 -13.25,0 -25.8125,1.5781 -37.6719,4.7188 -11.8594,3.1563 -22.1406,8.4063 -30.8594,15.75 -8.7188,7.3437 -15.5313,17.1406 -20.4063,29.3906 -4.8906,12.25 -7.3281,27.8125 -7.3281,46.6875 z" /><path
     style="fill:#999999"
     inkscape:connector-curvature="0"
     id="path7306"
     d="m 3850.5967,853.4736 c 11.1563,-5.5625 22.5,-9.9219 34.0156,-13.0625 11.5156,-3.125 25.2969,-4.7031 41.3594,-4.7031 34.1875,0 63.5,6.7969 87.9375,20.3906 24.4219,13.5938 44.3125,32.75 59.6719,57.4844 15.3438,24.75 26.6875,54.7188 34.0156,89.9063 7.3281,35.2031 11,74.75 11,118.6563 0,96.875 -17.2813,169.3438 -51.8125,217.4375 -34.5469,48.0938 -88.8125,72.125 -162.7813,72.125 -25.8281,0 -51.2969,-2.625 -76.4219,-7.8281 -25.125,-5.2344 -47.4531,-12.0156 -66.9844,-20.375 V 602.38 l 90,-15.6719 v 266.7655 z m 0,471.9063 c 9.7813,2.7969 19.2031,4.7188 28.2969,5.7656 9.0781,1.0469 17.4688,1.5625 25.1563,1.5625 40.5313,0 70.75,-16.2344 90.6719,-48.7031 19.9063,-32.4688 29.875,-86.4375 29.875,-161.875 0,-39.0938 -2.4531,-71.9219 -7.3438,-98.4688 -4.8906,-26.5313 -12.0469,-47.8438 -21.4844,-63.9063 -9.4375,-16.0625 -20.7813,-27.5781 -34.0625,-34.5625 -13.2812,-6.9844 -28.6563,-10.4844 -46.125,-10.4844 -23.0625,0 -44.7344,5.5781 -64.9844,16.7344 v 393.9376 z" /><path
     style="fill:#999999"
     inkscape:connector-curvature="0"
     id="path7308"
     d="m 4576.6426,1124.2236 c 0,43.2188 -3.8438,82.4219 -11.5156,117.6094 -7.6719,35.2031 -19.3594,65.3438 -35.0469,90.4375 -15.7031,25.0938 -35.5781,44.5938 -59.6406,58.5313 -24.0625,13.9375 -52.5,20.9063 -85.2813,20.9063 -32.7813,0 -61.3906,-6.9688 -85.7969,-20.9063 -24.4063,-13.9375 -44.4688,-33.4375 -60.1563,-58.5313 -15.7031,-25.0938 -27.3906,-55.2344 -35.0625,-90.4375 -7.6719,-35.1875 -11.5,-74.3906 -11.5,-117.6094 0,-42.5 3.8281,-81.5313 11.5,-117.0781 7.6719,-35.5313 19.3594,-66.0313 35.0625,-91.4688 15.6875,-25.4375 35.75,-45.125 60.1563,-59.0625 24.4063,-13.9375 53.0156,-20.9063 85.7969,-20.9063 32.7813,0 61.2188,6.9688 85.2813,20.9063 24.0625,13.9375 43.9375,33.625 59.6406,59.0625 15.6875,25.4375 27.375,55.9375 35.0469,91.4688 7.6718,35.5469 11.5156,74.5781 11.5156,117.0781 z m -94,0.016 c 0,-30.7344 -1.75,-58.8594 -5.25,-84.3594 -3.5,-25.5 -9.0781,-47.5 -16.7656,-66.0156 -7.6875,-18.5 -17.8281,-32.8281 -30.3906,-42.9531 -12.5781,-10.125 -27.5938,-15.2031 -45.0625,-15.2031 -18.1875,0 -33.3906,5.0781 -45.6094,15.2031 -12.2188,10.125 -22.3594,24.4531 -30.3906,42.9531 -8.0313,18.5156 -13.7969,40.5156 -17.2969,66.0156 -3.5,25.5 -5.2344,53.625 -5.2344,84.3594 0,30.7344 1.7344,58.8438 5.2344,84.3438 3.5,25.5 9.2656,47.3438 17.2969,65.5 8.0313,18.1562 18.1719,32.3125 30.3906,42.4375 12.2187,10.125 27.4219,15.1875 45.6094,15.1875 17.4688,0 32.4844,-5.0625 45.0625,-15.1875 12.5625,-10.125 22.7031,-24.2813 30.3906,-42.4375 7.6875,-18.1562 13.2656,-40 16.7656,-65.5 3.5,-25.5 5.25,-53.6095 5.25,-84.3438 z" /><path
     style="fill:#999999"
     inkscape:connector-curvature="0"
     id="path7310"
     d="m 4919.8379,930.3486 c -22.2969,-9.75 -47.375,-14.6406 -75.2344,-14.6406 -25.7813,0 -49.8125,4.5313 -72.0938,13.5938 v 468.4063 h -90 V 873.1924 c 20.2031,-9.75 43.375,-17.9219 69.5156,-24.5469 26.1406,-6.625 54.8906,-9.9375 86.25,-9.9375 16.7188,0 33.4531,1.0469 50.1875,3.1406 16.7188,2.0938 32.4063,5.9375 47.0469,11.5 l -15.6718,77 z" /><path
     style="fill:#999999"
     inkscape:connector-curvature="0"
     id="path7312"
     d="m 4991.5625,860.7861 c 18.1406,-7.6563 37.3281,-13.75 57.5781,-18.2813 20.25,-4.5313 42.2344,-6.7969 65.9844,-6.7969 48.8594,0 88.6406,15.1719 119.3594,45.4844 30.7188,30.3281 46.0781,77.5469 46.0781,141.6719 v 363.8438 c -25.125,6.9688 -50.7813,12.5313 -76.9375,16.7344 -26.1719,4.1719 -51.8125,6.2656 -76.9375,6.2656 -25.125,0 -48.6719,-3.1406 -70.6563,-9.4063 -21.9844,-6.2813 -41.1719,-16.3906 -57.5625,-30.3281 -16.4063,-13.9375 -29.4844,-31.5469 -39.25,-52.8125 -9.7813,-21.2656 -14.6563,-47.25 -14.6563,-77.9375 0,-28.5781 4.3594,-53.5 13.0781,-74.7656 8.7187,-21.2656 20.75,-39.0469 36.0938,-53.3438 15.3438,-14.2813 33.4844,-25.0938 54.4219,-32.4219 20.9219,-7.3125 43.5938,-10.9844 68.0156,-10.9844 23.0156,0 48.4844,2.7969 76.3906,8.3594 v -50.0313 c 0,-40.2656 -7.8594,-68.3906 -23.5625,-84.3594 -15.7031,-15.9688 -38.2031,-23.9688 -67.5156,-23.9688 -16.0625,0 -31.2344,1.5781 -45.5469,4.7031 -14.3125,3.1406 -29.4844,8.1875 -45.5313,15.1563 l -18.8436,-76.7811 z m 43,377.4688 c 0,32.1875 8.3594,55.9844 25.1094,71.375 16.7344,15.3906 40.4531,23.0781 71.1563,23.0781 18.8281,0 39.4063,-2.4375 61.7344,-7.3281 v -175.2813 c -20.9375,-5.5938 -41.5156,-8.3906 -61.7344,-8.3906 -13.25,0 -25.8125,1.5781 -37.6719,4.7188 -11.8594,3.1563 -22.1406,8.4063 -30.8594,15.75 -8.7188,7.3437 -15.5313,17.1406 -20.4063,29.3906 -4.8906,12.25 -7.3281,27.8125 -7.3281,46.6875 z" /><path
     style="fill:#999999"
     inkscape:connector-curvature="0"
     id="path7314"
     d="m 5494.1055,848.708 h 138 v 77 h -138 v 303.2188 c 0,37.7813 6.7969,64.2031 20.4219,79.2344 13.6094,15.0313 31.9375,22.5469 54.9844,22.5469 11.8594,0 23.2031,-1.7344 34.0313,-5.2188 10.8125,-3.4844 20.0781,-7.6719 27.7656,-12.5469 l 17.7969,71.6875 c -28.625,16.7188 -58.9844,25.0781 -91.0938,25.0781 -51.6563,0 -90.2188,-14.4688 -115.6875,-43.4219 -25.4844,-28.9375 -38.2188,-76.8906 -38.2188,-143.8594 V 701.3799 l 90,-15.6719 v 163 z" /><path
     style="fill:#999999"
     inkscape:connector-curvature="0"
     id="path7316"
     d="m 6067.3164,1124.2236 c 0,43.2188 -3.8438,82.4219 -11.5156,117.6094 -7.6719,35.2031 -19.3594,65.3438 -35.0469,90.4375 -15.7031,25.0938 -35.5781,44.5938 -59.6406,58.5313 -24.0625,13.9375 -52.5,20.9063 -85.2813,20.9063 -32.7813,0 -61.3906,-6.9688 -85.7969,-20.9063 -24.4063,-13.9375 -44.4688,-33.4375 -60.1563,-58.5313 -15.7031,-25.0938 -27.3906,-55.2344 -35.0625,-90.4375 -7.6719,-35.1875 -11.5,-74.3906 -11.5,-117.6094 0,-42.5 3.8281,-81.5313 11.5,-117.0781 7.6719,-35.5313 19.3594,-66.0313 35.0625,-91.4688 15.6875,-25.4375 35.75,-45.125 60.1563,-59.0625 24.4063,-13.9375 53.0156,-20.9063 85.7969,-20.9063 32.7813,0 61.2188,6.9688 85.2813,20.9063 24.0625,13.9375 43.9375,33.625 59.6406,59.0625 15.6875,25.4375 27.375,55.9375 35.0469,91.4688 7.6719,35.5469 11.5156,74.5781 11.5156,117.0781 z m -94,0.016 c 0,-30.7344 -1.75,-58.8594 -5.25,-84.3594 -3.5,-25.5 -9.0781,-47.5 -16.7656,-66.0156 -7.6875,-18.5 -17.8281,-32.8281 -30.3906,-42.9531 -12.5781,-10.125 -27.5938,-15.2031 -45.0625,-15.2031 -18.1875,0 -33.3906,5.0781 -45.6094,15.2031 -12.2188,10.125 -22.3594,24.4531 -30.3906,42.9531 -8.0313,18.5156 -13.7969,40.5156 -17.2969,66.0156 -3.5,25.5 -5.2344,53.625 -5.2344,84.3594 0,30.7344 1.7344,58.8438 5.2344,84.3438 3.5,25.5 9.2656,47.3438 17.2969,65.5 8.0313,18.1562 18.1719,32.3125 30.3906,42.4375 12.2187,10.125 27.4219,15.1875 45.6094,15.1875 17.4688,0 32.4844,-5.0625 45.0625,-15.1875 12.5625,-10.125 22.7031,-24.2813 30.3906,-42.4375 7.6875,-18.1562 13.2656,-40 16.7656,-65.5 3.5,-25.5 5.25,-53.6095 5.25,-84.3438 z" /><path
     style="fill:#999999"
     inkscape:connector-curvature="0"
     id="path7318"
     d="m 6410.5117,930.3486 c -22.2969,-9.75 -47.375,-14.6406 -75.2344,-14.6406 -25.7813,0 -49.8125,4.5313 -72.0938,13.5938 v 468.4063 h -90 V 873.1924 c 20.2031,-9.75 43.375,-17.9219 69.5156,-24.5469 26.1406,-6.625 54.8906,-9.9375 86.25,-9.9375 16.7188,0 33.4531,1.0469 50.1875,3.1406 16.7188,2.0938 32.4063,5.9375 47.0469,11.5 l -15.6718,77 z" /><path
     style="fill:#999999"
     inkscape:connector-curvature="0"
     id="path7320"
     d="m 6534.415,751.708 c -16.0313,0 -29.7813,-5.3906 -41.2656,-16.1719 -11.5,-10.7813 -17.2344,-25.2344 -17.2344,-43.3281 0,-18.0937 5.7344,-32.5313 17.2344,-43.3125 11.4844,-10.7813 25.2344,-16.1875 41.2656,-16.1875 16.0156,0 29.7656,5.4063 41.2656,16.1875 11.4844,10.7813 17.2344,25.2188 17.2344,43.3125 0,18.0937 -5.75,32.5469 -17.2344,43.3281 -11.4999,10.7813 -25.2499,16.1719 -41.2656,16.1719 z m 45.5,646 h -90 v -549 h 90 v 549 z" /><path
     style="fill:#999999"
     inkscape:connector-curvature="0"
     id="path7322"
     d="m 6777.748,1150.708 c 0.6875,26.5 3.1406,50.7344 7.3438,72.7031 4.1875,21.9688 11.0156,41.1406 20.4531,57.5156 9.4375,16.3906 22.0156,29.125 37.75,38.1875 15.7344,9.0625 35.8438,13.5938 60.3125,13.5938 20.2813,0 38.9844,-2.9531 56.125,-8.8906 17.125,-5.9219 29.5469,-10.9688 37.2344,-15.1563 l 16.7813,71.7031 c -9.0938,6.2813 -24.2813,13.0625 -45.5938,20.375 -21.3125,7.3125 -46.625,10.9688 -75.9688,10.9688 -38.4219,0 -70.7344,-6.9688 -96.9375,-20.9063 -26.2031,-13.9375 -47.5156,-33.4375 -63.9219,-58.5313 -16.4219,-25.0938 -28.125,-55.0625 -35.1094,-89.9063 -6.9844,-34.8438 -10.4688,-73.1875 -10.4688,-115 0,-101.0469 16.75,-174.9219 50.2656,-221.6094 33.5156,-46.6875 77.8594,-70.0469 133.0156,-70.0469 62.1406,0 106.125,23.375 131.9688,70.125 25.8281,46.75 38.75,112.3281 38.75,196.7344 0,7.6875 0,15.5313 0,23.5469 0,8.0313 -0.3594,16.2188 -1.0469,24.5938 h -260.953 z m 91.3438,-239 c -30.1094,0 -51.9844,15.0625 -65.6406,45.1875 -13.6562,30.125 -21.875,70.3906 -24.6719,120.8125 h 166.9688 c 0,-51.125 -5.25,-91.5781 -15.75,-121.3438 -10.5,-29.7657 -30.8126,-44.6562 -60.9063,-44.6562 z" /><path
     style="fill:#999999"
     inkscape:connector-curvature="0"
     id="path7324"
     d="m 7222.1787,1334.708 c 26.375,0 46.3438,-7.5 59.8906,-22.5313 13.5313,-15.0313 20.3125,-34.7656 20.3125,-59.2344 0,-15.375 -2.7969,-28.4688 -8.3594,-39.2969 -5.5625,-10.8281 -12.875,-20.4375 -21.9219,-28.8281 -9.0469,-8.375 -19.4844,-15.8906 -31.3125,-22.5313 -11.8438,-6.6406 -23.6719,-13.8125 -35.5,-21.5 -11.8281,-6.9688 -23.3125,-15.1406 -34.4375,-24.5469 -11.1406,-9.4063 -21.0625,-20.2031 -29.7656,-32.3906 -8.7031,-12.1875 -15.6563,-26.1094 -20.875,-41.7813 -5.2187,-15.6719 -7.8281,-33.9531 -7.8281,-54.8594 0,-45.2813 14.0938,-81.8438 42.2969,-109.7031 28.1875,-27.8594 66.3125,-41.7969 114.3594,-41.7969 20.1875,0 39.3281,2.625 57.4375,7.8438 18.0938,5.2188 33.0625,10.9688 44.9063,17.2344 l -19.8125,71.8125 c -12.5156,-6.9688 -25.0313,-12.1875 -37.5313,-15.6719 -12.5156,-3.4688 -26.0781,-5.2188 -40.6719,-5.2188 -22.25,0 -39.9688,6.4688 -53.1719,19.3906 -13.2188,12.9375 -19.8125,31.625 -19.8125,56.0781 0,13.9844 2.4219,26.0469 7.2969,36.1719 4.875,10.125 11.2969,19.2188 19.2969,27.25 8,8.0312 17.0313,15.5469 27.125,22.5313 10.0938,7 20.7031,13.6406 31.8281,19.9219 13.2188,7.6719 26.25,16.0313 39.125,25.0781 12.8594,9.0625 24.3281,19.6719 34.4219,31.8594 10.0781,12.1875 18.25,26.4688 24.5156,42.8438 6.25,16.375 9.3906,36.0469 9.3906,59.0313 0,48.0625 -14.0938,86.7188 -42.25,115.9688 -28.1562,29.25 -69.3594,43.875 -123.5938,43.875 -27.8125,0 -52.8438,-3.8438 -75.0938,-11.4844 -22.25,-7.6563 -38.9375,-14.625 -50.0625,-20.9063 l 18.75,-73.8594 c 10.4063,5.5781 24.4688,11.8438 42.1875,18.8125 17.7033,6.9689 37.3283,10.4376 58.8595,10.4376 z" />
</svg>