<?xml version="1.0" encoding="UTF-8" standalone="no"?>
<!-- Generator: Adobe Illustrator 15.1.0, SVG Export Plug-In . SVG Version: 6.00 Build 0)  -->

<svg
     xmlns:dc="http://purl.org/dc/elements/1.1/"
     xmlns:cc="http://creativecommons.org/ns#"
     xmlns:rdf="http://www.w3.org/1999/02/22-rdf-syntax-ns#"
     xmlns:svg="http://www.w3.org/2000/svg"
     xmlns="http://www.w3.org/2000/svg"
     xmlns:sodipodi="http://sodipodi.sourceforge.net/DTD/sodipodi-0.dtd"
     xmlns:inkscape="http://www.inkscape.org/namespaces/inkscape"
     version="1.1"
     x="0px"
     y="0px"
     width="144px"
     height="144px"
     viewBox="0 0 144 144"
     enable-background="new 0 0 144 144"
     xml:space="preserve"
     id="svg5381"
     inkscape:version="0.48.5 r10040"
     sodipodi:docname="logo_short_spot_on_black.svg"><metadata
     id="metadata5420"><rdf:RDF><cc:Work
             rdf:about=""><dc:format>image/svg+xml</dc:format><dc:type
                 rdf:resource="http://purl.org/dc/dcmitype/StillImage" /></cc:Work></rdf:RDF></metadata><defs
     id="defs5418">
	

		
	
			
			
			
			
			
			
		
	
	
	
	
	
	
</defs><sodipodi:namedview
     pagecolor="#ffffff"
     bordercolor="#666666"
     borderopacity="1"
     objecttolerance="10"
     gridtolerance="10"
     guidetolerance="10"
     inkscape:pageopacity="0"
     inkscape:pageshadow="2"
     inkscape:window-width="1582"
     inkscape:window-height="804"
     id="namedview5416"
     showgrid="false"
     borderlayer="true"
     inkscape:showpageshadow="false"
     inkscape:zoom="4.1736111"
     inkscape:cx="34.622296"
     inkscape:cy="72"
     inkscape:window-x="0"
     inkscape:window-y="0"
     inkscape:window-maximized="0"
     inkscape:current-layer="svg5381" />
<g
     id="background">
	<path
     style=""
     d="m 0,0 144,0 0,144 -144,0 z"
     id="rect5384" />
</g>
<path
     style="fill:#999999"
     inkscape:connector-curvature="0"
     id="path5387"
     d="m 72.8999,15.375 c -7.4502,0 -14.4292,2.0186 -20.4204,5.5376 0.8257,1.5112 1.2954,3.2441 1.2954,5.0874 0,5.8677 -4.7573,10.625 -10.625,10.625 -1.8433,0 -3.5762,-0.4692 -5.0874,-1.2954 -3.519,5.9912 -5.5376,12.9702 -5.5376,20.4204 0,22.2988 18.0762,40.375 40.375,40.375 22.2983,0 40.3755,-18.0762 40.3755,-40.375 0,-22.2983 -18.0772,-40.375 -40.3755,-40.375 z" /><path
     style="fill:#ffffff"
     inkscape:connector-curvature="0"
     id="path5389"
     d="m 72.8999,13.25 c -7.1255,0 -13.8408,1.7539 -19.7397,4.853 -2.335,-2.9561 -5.9507,-4.853 -10.0103,-4.853 -7.042,0 -12.75,5.7085 -12.75,12.75 0,4.0596 1.8975,7.6753 4.853,10.0103 -3.0991,5.8984 -4.853,12.6143 -4.853,19.7397 0,23.4727 19.0278,42.5 42.5,42.5 23.4722,0 42.5005,-19.0273 42.5005,-42.5 0,-23.4722 -19.0283,-42.5 -42.5005,-42.5 z m -29.75,4.25 c 4.6948,0 8.5,3.8057 8.5,8.5 0,4.6943 -3.8057,8.5 -8.5,8.5 -4.6943,0 -8.5,-3.8057 -8.5,-8.5 0,-4.6943 3.8057,-8.5 8.5,-8.5 z m 29.75,76.5 c -21.125,0 -38.25,-17.125 -38.25,-38.25 0,-6.3857 1.5664,-12.4053 4.3335,-17.6973 1.3057,0.4517 2.7075,0.6973 4.1665,0.6973 7.0415,0 12.75,-5.7085 12.75,-12.75 0,-1.4595 -0.2461,-2.8608 -0.6973,-4.1665 C 60.4951,19.0664 66.5142,17.5 72.8999,17.5 c 21.1245,0 38.2505,17.125 38.2505,38.25 0,21.125 -17.126,38.25 -38.2505,38.25 z" /><path
     inkscape:connector-curvature="0"
     id="path5391"
     d="m 93.3037,50.2842 c 1.3018,-2.5483 2.0361,-5.4341 2.0361,-8.4922 0,-10.3281 -8.373,-18.6997 -18.7002,-18.6997 -10.0005,5e-4 -18.1665,7.8496 -18.6748,17.7227 -9.8735,0.5088 -17.7227,8.6753 -17.7227,18.6748 0,10.3276 8.3721,18.6997 18.7002,18.6997 3.0576,0 5.9438,-0.7334 8.4922,-2.0352 3.3354,5.125 9.1133,8.5137 15.6826,8.5137 10.3281,0 18.7002,-8.373 18.7002,-18.7007 1e-4,-6.5698 -3.3886,-12.3472 -8.5136,-15.6831 z" /><path
     style="fill:#666666;fill-opacity:1"
     inkscape:connector-curvature="0"
     id="path5393"
     d="m 64.4175,65.9673 c 0,-5.7441 2.5908,-10.8828 6.667,-14.313 -2.5732,-3.98 -7.0498,-6.6143 -12.1421,-6.6143 -7.9805,-5e-4 -14.4502,6.4692 -14.4502,14.4497 0,7.98 6.4692,14.4497 14.4502,14.4497 2.375,0 4.6167,-0.5723 6.5938,-1.5889 -0.7237,-1.9921 -1.1187,-4.1405 -1.1187,-6.3832 z" /><path
     style="fill:#666666;fill-opacity:1"
     inkscape:connector-curvature="0"
     id="path5395"
     d="m 74.626,49.3027 c 2.5479,-1.3013 5.4346,-2.0352 8.4912,-2.0352 2.2422,0 4.3916,0.395 6.3838,1.1187 1.0146,-1.9771 1.5889,-4.2188 1.5889,-6.5942 0,-7.9805 -6.4697,-14.4497 -14.4502,-14.4497 -7.7397,0 -14.0581,6.0854 -14.4321,13.7319 5.1938,0.9146 9.6484,3.9732 12.4184,8.2285 z" /><circle
     style="fill:#ffcc00;fill-opacity:1"
     sodipodi:ry="14.45"
     sodipodi:rx="14.45"
     sodipodi:cy="65.968002"
     sodipodi:cx="83.117203"
     id="circle5397"
     r="14.45"
     cy="65.968002"
     cx="83.117203" />
<path
     style="fill:#ffcc00;fill-opacity:1"
     inkscape:connector-curvature="0"
     id="path5404"
     d="m 40.1328,108.6152 h 2.79 v 21.4824 h -2.79 v -9.9824 h -7.0679 v 9.9824 h -2.79 v -21.4824 h 2.79 v 9.082 h 7.0679 v -9.082 z" /><path
     style="fill:#ffcc00;fill-opacity:1"
     inkscape:connector-curvature="0"
     id="path5406"
     d="m 53.4932,118.5352 c 1.0332,0.3711 1.834,1.0273 2.4028,1.9688 0.5679,0.9395 0.8525,2.1543 0.8525,3.6426 0,1.9844 -0.4805,3.5488 -1.4419,4.6953 -0.9609,1.1484 -2.4131,1.7207 -4.3555,1.7207 -0.7646,0 -1.5088,-0.1133 -2.2319,-0.3398 -0.7236,-0.2285 -1.3535,-0.5273 -1.8911,-0.9004 l 0.7134,-2.1699 c 0.4751,0.291 0.9766,0.5391 1.5034,0.7441 0.5269,0.207 1.0796,0.3105 1.6582,0.3105 1.0542,0 1.876,-0.3262 2.4648,-0.9766 0.5888,-0.6504 0.8833,-1.6895 0.8833,-3.1152 0,-1.4257 -0.3252,-2.5 -0.9766,-3.2246 -0.6509,-0.7227 -1.6895,-1.084 -3.1152,-1.084 h -0.8062 v -2.2637 h 0.6821 c 1.2397,0 2.1592,-0.3301 2.7588,-0.9922 0.5991,-0.6602 0.8989,-1.5801 0.8989,-2.7578 0,-1.1172 -0.2378,-1.9492 -0.7129,-2.4961 -0.4756,-0.5469 -1.106,-0.8223 -1.8911,-0.8223 -0.5376,0 -1.0488,0.1035 -1.5342,0.3105 -0.4858,0.207 -0.9043,0.4648 -1.2554,0.7754 l -1.0542,-1.9531 c 0.5371,-0.4961 1.1729,-0.8691 1.9063,-1.1172 0.7334,-0.2481 1.4619,-0.3711 2.1855,-0.3711 1.6123,0 2.8521,0.5059 3.7202,1.5195 0.8682,1.0117 1.3018,2.3555 1.3018,4.0293 0,1.1777 -0.2324,2.1758 -0.6973,2.9922 -0.4649,0.8164 -1.1214,1.4415 -1.9685,1.8751 z" /><path
     style="fill:#ffcc00;fill-opacity:1"
     inkscape:connector-curvature="0"
     id="path5408"
     d="m 77.084,127.7109 v 2.3867 h -9.5791 v -21.4824 h 2.79 v 19.0957 h 6.7891 z" /><path
     style="fill:#ffcc00;fill-opacity:1"
     inkscape:connector-curvature="0"
     id="path5410"
     d="m 80.4941,114.1641 c 0.5371,-0.2266 1.1055,-0.4082 1.7051,-0.543 0.5986,-0.1328 1.25,-0.2012 1.9531,-0.2012 1.4463,0 2.624,0.4492 3.5342,1.3496 0.9092,0.8984 1.3633,2.2988 1.3633,4.1992 v 10.7891 c -0.7441,0.207 -1.5029,0.3711 -2.2783,0.4961 -0.7744,0.123 -1.5342,0.1855 -2.2783,0.1855 -0.7441,0 -1.4414,-0.0938 -2.0928,-0.2793 -0.6504,-0.1855 -1.2197,-0.4863 -1.7051,-0.8984 -0.4854,-0.4141 -0.873,-0.9355 -1.1621,-1.5664 -0.29,-0.6289 -0.4336,-1.4004 -0.4336,-2.3086 0,-0.8477 0.1279,-1.5859 0.3867,-2.2168 0.2588,-0.6309 0.6152,-1.1582 1.0693,-1.582 0.4551,-0.4219 0.9922,-0.7441 1.6123,-0.9609 0.6201,-0.2168 1.291,-0.3242 2.0156,-0.3242 0.6816,0 1.4355,0.082 2.2627,0.248 v -1.4883 c 0,-1.1992 -0.2324,-2.0352 -0.6973,-2.5117 -0.4658,-0.4746 -1.1318,-0.7129 -2,-0.7129 -0.4756,0 -0.9248,0.0469 -1.3486,0.1406 -0.4238,0.0918 -0.873,0.2422 -1.3486,0.4492 l -0.5576,-2.2636 z m 1.2705,11.1914 c 0,0.9512 0.248,1.6543 0.7441,2.1074 0.4961,0.4551 1.1982,0.6816 2.1084,0.6816 0.5576,0 1.167,-0.0723 1.8291,-0.2168 v -5.1758 c -0.6201,-0.166 -1.2305,-0.248 -1.8291,-0.248 -0.3926,0 -0.7646,0.0449 -1.1162,0.1387 -0.3516,0.0938 -0.6563,0.248 -0.9141,0.4648 -0.2588,0.2168 -0.46,0.5078 -0.6045,0.8691 -0.1454,0.3614 -0.2177,0.8204 -0.2177,1.379 z" /><path
     style="fill:#ffcc00;fill-opacity:1"
     inkscape:connector-curvature="0"
     id="path5412"
     d="m 96.335,113.9473 c 0.3311,-0.166 0.667,-0.2949 1.0078,-0.3867 0.3408,-0.0938 0.749,-0.1406 1.2246,-0.1406 1.0117,0 1.8799,0.2012 2.6035,0.6055 0.7236,0.4023 1.3125,0.9707 1.7676,1.7051 0.4541,0.7324 0.79,1.6211 1.0068,2.666 0.2178,1.043 0.3262,2.2148 0.3262,3.5176 0,2.873 -0.5117,5.0215 -1.5352,6.4473 -1.0225,1.4277 -2.6299,2.1406 -4.8203,2.1406 -0.7646,0 -1.5186,-0.0781 -2.2627,-0.2324 -0.7441,-0.1563 -1.4053,-0.3574 -1.9844,-0.6055 v -23.1563 l 2.666,-0.4648 v 7.9042 z m 0,13.9804 c 0.2891,0.084 0.5684,0.1406 0.8369,0.1719 0.2686,0.0293 0.5166,0.0449 0.7441,0.0449 1.1982,0 2.0928,-0.4805 2.6816,-1.4414 0.5888,-0.9609 0.8838,-2.5566 0.8838,-4.7891 0,-1.1563 -0.0732,-2.1289 -0.2168,-2.9141 -0.1455,-0.7852 -0.3564,-1.416 -0.6357,-1.8906 -0.2793,-0.4746 -0.6152,-0.8164 -1.0078,-1.0234 -0.3926,-0.207 -0.8477,-0.3105 -1.3643,-0.3105 -0.6816,0 -1.3223,0.166 -1.9219,0.4961 v 11.6562 z" /><path
     style="fill:#ffcc00;fill-opacity:1"
     inkscape:connector-curvature="0"
     id="path5414"
     d="m 110.4395,128.207 c 0.7852,0 1.3799,-0.2227 1.7832,-0.666 0.4023,-0.4453 0.6045,-1.0273 0.6045,-1.752 0,-0.4551 -0.083,-0.8418 -0.248,-1.1621 -0.166,-0.3203 -0.3828,-0.6055 -0.6514,-0.8535 -0.2686,-0.248 -0.5791,-0.4688 -0.9297,-0.666 -0.3516,-0.1953 -0.7031,-0.4082 -1.0547,-0.6348 -0.3516,-0.207 -0.6924,-0.4492 -1.0225,-0.7285 -0.3311,-0.2793 -0.625,-0.5996 -0.8838,-0.9609 -0.2588,-0.3613 -0.4648,-0.7754 -0.6201,-1.2402 -0.1543,-0.4648 -0.2324,-1.0078 -0.2324,-1.627 0,-1.3438 0.4189,-2.4297 1.2559,-3.2559 0.837,-0.8262 1.9688,-1.2402 3.3945,-1.2402 0.5986,0 1.167,0.0781 1.7051,0.2324 0.5371,0.1563 0.9814,0.3262 1.333,0.5117 l -0.5889,2.1387 c -0.3721,-0.2051 -0.7441,-0.3613 -1.1162,-0.4648 -0.3721,-0.1035 -0.7754,-0.1543 -1.209,-0.1543 -0.6621,0 -1.1885,0.1914 -1.5811,0.5723 -0.3926,0.3828 -0.5889,0.9355 -0.5889,1.6602 0,0.4121 0.0723,0.7695 0.2168,1.0684 0.1445,0.3008 0.3359,0.5684 0.5732,0.8066 0.2373,0.2382 0.5068,0.459 0.8066,0.666 0.2988,0.207 0.6143,0.4023 0.9453,0.5898 0.3916,0.2266 0.7793,0.4746 1.1621,0.7441 0.3818,0.2676 0.7236,0.584 1.0234,0.9453 0.2988,0.3613 0.542,0.7852 0.7285,1.2695 0.1855,0.4863 0.2783,1.0703 0.2783,1.752 0,1.4258 -0.418,2.5742 -1.2549,3.4414 -0.8369,0.8672 -2.0615,1.3027 -3.6738,1.3027 -0.8271,0 -1.5703,-0.1152 -2.2324,-0.3418 -0.6611,-0.2266 -1.1572,-0.4336 -1.4873,-0.6191 l 0.5576,-2.2012 c 0.3105,0.1641 0.7285,0.3516 1.2559,0.5566 0.5265,0.2071 1.1105,0.3106 1.7512,0.3106 z" />
</svg>