<?xml version="1.0" encoding="UTF-8" standalone="no"?>
<!-- Created with Inkscape (http://www.inkscape.org/) -->

<svg
   xmlns:osb="http://www.openswatchbook.org/uri/2009/osb"
   xmlns:dc="http://purl.org/dc/elements/1.1/"
   xmlns:cc="http://creativecommons.org/ns#"
   xmlns:rdf="http://www.w3.org/1999/02/22-rdf-syntax-ns#"
   xmlns:svg="http://www.w3.org/2000/svg"
   xmlns="http://www.w3.org/2000/svg"
   xmlns:sodipodi="http://sodipodi.sourceforge.net/DTD/sodipodi-0.dtd"
   xmlns:inkscape="http://www.inkscape.org/namespaces/inkscape"
   width="1100"
   height="1100"
   id="svg2"
   version="1.1"
   inkscape:version="0.48.4 r9939"
   sodipodi:docname="New document 1">
  <defs
     id="defs4">
    <linearGradient
       id="linearGradient9230"
       osb:paint="solid">
      <stop
         style="stop-color:#000000;stop-opacity:1;"
         offset="0"
         id="stop9232" />
    </linearGradient>
  </defs>
  <sodipodi:namedview
     id="base"
     pagecolor="#ffffff"
     bordercolor="#666666"
     borderopacity="1.0"
     inkscape:pageopacity="0.0"
     inkscape:pageshadow="2"
     inkscape:zoom="0.49497475"
     inkscape:cx="368.58418"
     inkscape:cy="494.64853"
     inkscape:document-units="px"
     inkscape:current-layer="layer2"
     showgrid="false"
     borderlayer="true"
     inkscape:showpageshadow="false"
     inkscape:window-width="1725"
     inkscape:window-height="1099"
     inkscape:window-x="64"
     inkscape:window-y="0"
     inkscape:window-maximized="0" />
  <metadata
     id="metadata7">
    <rdf:RDF>
      <cc:Work
         rdf:about="">
        <dc:format>image/svg+xml</dc:format>
        <dc:type
           rdf:resource="http://purl.org/dc/dcmitype/StillImage" />
        <dc:title></dc:title>
      </cc:Work>
    </rdf:RDF>
  </metadata>
  <g
     inkscape:label="Layer 1"
     inkscape:groupmode="layer"
     id="layer1"
     style="display:inline"
     transform="translate(0,47.637817)" />
  <g
     inkscape:groupmode="layer"
     id="layer2"
     inkscape:label="Layer"
     style="display:inline"
     transform="translate(0,47.637817)">
    <g
       id="g10670"
       transform="translate(171.9274,35.380553)">
      <path
         style="fill:#cccccc;fill-opacity:0.49803922"
         inkscape:connector-curvature="0"
         id="path7223"
         d="m 378.0726,-33.01837 c -83.8296,0 -162.8364,20.6372 -232.229,57.0977 -27.4702,-34.7764 -70.0122,-57.0977 -117.7705,-57.0977 -82.8433,0 -150.0005,67.1582 -150.0005,150.0005 0,47.7583 22.3218,90.2998 57.0977,117.77 -36.4605,69.3931 -57.0977,148.3999 -57.0977,232.2295 0,276.1416 223.8569,500 499.9995,500 276.1431,0 500.0005,-223.8574 500.0005,-499.9995 0,-276.1436 -223.8574,-500.001 -500,-500.0005 z m -349.9995,50 c 55.2285,0 99.9995,44.771 99.9995,100 0,55.229 -44.772,100 -100,100 -55.2275,0 -100,-44.771 -100,-99.9995 0,-55.2295 44.771,-100.0005 100.0005,-100.0005 z m 349.999,900 c -248.5278,0 -449.9995,-201.4717 -449.9995,-450 0,-75.126 18.4272,-145.9404 50.9824,-208.2012 15.3613,5.3096 31.8511,8.2012 49.0176,8.2012 82.8418,0 150,-67.1572 150,-150 0,-17.167 -2.8916,-33.6563 -8.2012,-49.0181 62.2608,-32.5547 133.0752,-50.9819 208.2012,-50.9819 248.5283,-5e-4 450,201.4717 450,450.0005 0,248.5278 -201.4717,449.9995 -450.0005,449.9995 z" />
      <path
         style="fill:#666666;fill-opacity:0.49803922"
         inkscape:connector-curvature="0"
         id="path7228"
         d="m 278.2806,587.18963 c 0,-67.582 30.4829,-128.0356 78.4385,-168.3921 -30.2773,-46.8237 -82.9429,-77.8174 -142.8521,-77.8179 -93.8877,-10e-4 -170.001,76.1089 -170.0015,169.998 -10e-4,93.8877 76.1099,170 169.9985,170.002 27.9458,0 54.3154,-6.7451 77.5732,-18.6934 -8.5096,-23.4345 -13.1566,-48.7216 -13.1566,-75.0966 z" />
      <path
         style="fill:#666666;fill-opacity:0.49803922"
         inkscape:connector-curvature="0"
         id="path7230"
         d="m 398.3724,391.13443 c 29.9805,-15.3081 63.9355,-23.9448 99.9082,-23.9448 26.374,0 51.6611,4.647 75.0947,13.1567 11.9482,-23.2588 18.6943,-49.6294 18.6934,-77.5762 0,-93.8887 -76.1152,-169.9985 -170.0039,-169.9956 -91.0537,5e-4 -165.3828,71.5894 -169.7861,161.5503 61.1025,10.7628 113.5073,46.7437 146.0937,96.8096 z" />
      <circle
         transform="translate(-716.4274,-590.51837)"
         style="fill:#cccccc;fill-opacity:0.49803922"
         sodipodi:ry="170"
         sodipodi:rx="170"
         sodipodi:cy="1177.709"
         sodipodi:cx="1214.708"
         id="circle7232"
         r="170"
         cy="1177.709"
         cx="1214.708"
         d="m 1384.708,1177.709 c 0,93.8884 -76.1116,170 -170,170 -93.8884,0 -170,-76.1116 -170,-170 0,-93.8884 76.1116,-170 170,-170 93.8884,0 170,76.1116 170,170 z" />
      <path
         sodipodi:nodetypes="scsscsssscccsccsscc"
         inkscape:connector-curvature="0"
         id="path9214"
         d="m 378.0625,16.96875 c -75.126,0 -145.9267,18.4453 -208.1875,51 5.3096,15.3618 8.1875,31.833 8.1875,49 0,82.8428 -67.1582,150 -150,150 -17.1665,0 -33.6387,-2.8779 -49,-8.1875 -32.5552,62.2608 -51,133.0615 -51,208.1875 0,248.5283 201.4722,450 450,450 248.5288,0 450,-201.4722 450,-450 0,-248.5288 -201.4717,-450.0005 -450,-450 z m 44,65.8125 c 121.5029,-0.001 220,98.4976 220,220 10e-4,35.9746 -8.6279,69.92435 -23.9375,99.90625 60.2881,39.2388 100.15625,107.2051 100.15625,184.5 0,121.5039 -98.4971,220.001 -220,220 -77.2939,10e-4 -145.2607,-39.86915 -184.5,-100.15625 -29.981,15.3077 -63.93315,23.9375 -99.90625,23.9375 -121.5029,0 -220.001,-98.4961 -220,-220 5e-4,-117.6436 92.3428,-213.7046 208.5,-219.6875 5.9804,-116.1552 102.042,-208.496 219.6875,-208.5 z"
         style="fill:#999999;fill-opacity:0.49803922;display:inline" />
      <path
         d="m 422.0625,82.78125 c -117.6455,0.004 -213.7071,92.3448 -219.6875,208.5 -116.1572,5.9829 -208.4995,102.0439 -208.5,219.6875 -0.001,121.5039 98.4971,220 220,220 35.9731,0 69.92525,-8.6298 99.90625,-23.9375 39.2393,60.2871 107.2061,100.15725 184.5,100.15625 121.5029,10e-4 220,-98.4961 220,-220 0,-77.2949 -39.86815,-145.2612 -100.15625,-184.5 15.3096,-29.9819 23.9385,-63.93165 23.9375,-99.90625 0,-121.5024 -98.4971,-220.001 -220,-220 z m 0,50 c 93.8887,-0.003 170,76.1113 170,170 9e-4,27.9468 -6.7393,54.3037 -18.6875,77.5625 -23.4336,-8.5097 -48.71975,-13.15625 -75.09375,-13.15625 -35.9727,0 -69.92575,8.6294 -99.90625,23.9375 -32.5864,-50.0659 -84.99125,-86.0497 -146.09375,-96.8125 4.4033,-89.9609 78.72755,-161.53075 169.78125,-161.53125 z M 213.875,340.96875 c 59.9092,5e-4 112.56645,31.02005 142.84375,77.84375 -47.9556,40.3565 -78.4375,100.793 -78.4375,168.375 0,26.375 4.64665,51.65925 13.15625,75.09375 -23.2578,11.9483 -49.6167,18.6875 -77.5625,18.6875 -93.8886,-0.002 -170.001,-76.1123 -170,-170 5e-4,-93.8891 76.1123,-170.001 170,-170 z m 284.40625,76.21875 c 93.88841,0 170,76.11159 170,170 0,93.88841 -76.11159,170 -170,170 -93.88841,0 -170,-76.11159 -170,-170 0,-93.88841 76.11159,-170 170,-170 z"
         style="fill:#000000;fill-opacity:0.49803922;fill-rule:evenodd;display:inline"
         id="path9217"
         inkscape:connector-curvature="0" />
    </g>
  </g>
  <g
     inkscape:groupmode="layer"
     id="layer3"
     inkscape:label="Layer#1"
     style="display:none"
     transform="translate(0,47.637817)">
    <path
       style="fill:#999999;fill-opacity:1"
       d="m 378.0625,16.96875 c -75.126,0 -145.9267,18.4453 -208.1875,51 5.3096,15.3618 8.1875,31.833 8.1875,49 0,82.8428 -67.1582,150 -150,150 -17.1665,0 -33.6387,-2.8779 -49,-8.1875 -32.5552,62.2608 -51,133.0615 -51,208.1875 0,248.5283 201.4722,450 450,450 248.5288,0 450,-201.4722 450,-450 0,-248.5288 -201.4717,-450.0005 -450,-450 z"
       id="path9179"
       inkscape:connector-curvature="0" />
  </g>
  <g
     inkscape:groupmode="layer"
     id="layer4"
     inkscape:label="Layer#2"
     style="display:none"
     transform="translate(0,47.637817)" />
</svg>
