<?xml version="1.0" encoding="UTF-8" standalone="no"?>
<!-- Generator: Adobe Illustrator 15.1.0, SVG Export Plug-In . SVG Version: 6.00 Build 0)  -->

<svg
     xmlns:dc="http://purl.org/dc/elements/1.1/"
     xmlns:cc="http://creativecommons.org/ns#"
     xmlns:rdf="http://www.w3.org/1999/02/22-rdf-syntax-ns#"
     xmlns:svg="http://www.w3.org/2000/svg"
     xmlns="http://www.w3.org/2000/svg"
     xmlns:sodipodi="http://sodipodi.sourceforge.net/DTD/sodipodi-0.dtd"
     xmlns:inkscape="http://www.inkscape.org/namespaces/inkscape"
     version="1.1"
     x="0px"
     y="0px"
     width="144px"
     height="144px"
     viewBox="0 0 144 144"
     enable-background="new 0 0 144 144"
     xml:space="preserve"
     id="svg5180"
     inkscape:version="0.48.5 r10040"
     sodipodi:docname="logo_roundel_spot_on_black.svg"><metadata
     id="metadata5293"><rdf:RDF><cc:Work
             rdf:about=""><dc:format>image/svg+xml</dc:format><dc:type
                 rdf:resource="http://purl.org/dc/dcmitype/StillImage" /></cc:Work></rdf:RDF></metadata><defs
     id="defs5291">
	
	

	
	
	
	
	
	
</defs><sodipodi:namedview
     pagecolor="#ffffff"
     bordercolor="#666666"
     borderopacity="1"
     objecttolerance="10"
     gridtolerance="10"
     guidetolerance="10"
     inkscape:pageopacity="0"
     inkscape:pageshadow="2"
     inkscape:window-width="1592"
     inkscape:window-height="806"
     id="namedview5289"
     showgrid="false"
     borderlayer="true"
     inkscape:showpageshadow="false"
     inkscape:zoom="4.3263889"
     inkscape:cx="35.942215"
     inkscape:cy="72"
     inkscape:window-x="0"
     inkscape:window-y="0"
     inkscape:window-maximized="0"
     inkscape:current-layer="svg5180" />
<g
     id="background">
	<circle
     cx="72"
     cy="72"
     r="72"
     id="circle5183" />
</g>
<path
     style="fill:#999999"
     inkscape:connector-curvature="0"
     id="path5186"
     d="m 73.2002,35 c -7.0122,0 -13.5806,1.8994 -19.2192,5.2119 0.7769,1.4219 1.2192,3.0532 1.2192,4.7881 0,5.5225 -4.4775,10 -10,10 -1.7349,0 -3.3662,-0.4419 -4.7886,-1.2192 -3.312,5.6387 -5.2114,12.207 -5.2114,19.2192 0,20.9863 17.0127,38 38,38 20.9863,0 38,-17.0137 38,-38 0,-20.9868 -17.0137,-38 -38,-38 z" /><path
     style="fill:#ffffff"
     inkscape:connector-curvature="0"
     id="path5188"
     d="M 73.2002,33 C 66.4932,33 60.1729,34.6509 54.6216,37.5674 52.4238,34.7856 49.0205,33 45.2002,33 c -6.6279,0 -12,5.3726 -12,12 0,3.8208 1.7852,7.2236 4.5674,9.4214 -2.917,5.5517 -4.5674,11.8725 -4.5674,18.5786 0,22.0918 17.9082,40 40,40 22.0908,0 40,-17.9082 40,-40 0,-22.0913 -17.9092,-40 -40,-40 z m -28,4 c 4.418,0 8,3.5815 8,8 0,4.4185 -3.582,8 -8,8 -4.4185,0 -8,-3.5815 -8,-8 0,-4.4185 3.5815,-8 8,-8 z m 28,72 c -19.8828,0 -36,-16.1182 -36,-36 0,-6.0103 1.4741,-11.6753 4.0781,-16.6563 1.229,0.4249 2.5484,0.6563 3.9219,0.6563 6.627,0 12,-5.3726 12,-12 0,-1.3735 -0.2319,-2.6924 -0.6563,-3.9214 C 61.5244,38.4741 67.1899,37 73.2002,37 c 19.8818,0 36,16.1177 36,36 0,19.8818 -16.1182,36 -36,36 z" /><path
     inkscape:connector-curvature="0"
     id="path5190"
     d="m 92.4043,67.856 c 1.2246,-2.3984 1.915,-5.1147 1.915,-7.9932 0,-9.7202 -7.8799,-17.5996 -17.5996,-17.5996 -9.4121,5e-4 -17.0977,7.3882 -17.5762,16.6802 -9.293,0.479 -16.6802,8.165 -16.6802,17.5762 0,9.7207 7.8794,17.5996 17.6001,17.5996 2.8774,0 5.5938,-0.6904 7.9922,-1.915 3.1396,4.8232 8.5771,8.0127 14.7607,8.0127 9.7207,0 17.5996,-7.8799 17.5996,-17.6006 1e-4,-6.1837 -3.1884,-11.6212 -8.0116,-14.7603 z" /><path
     style="fill:#666666;fill-opacity:1"
     inkscape:connector-curvature="0"
     id="path5192"
     d="m 65.2163,82.6162 c 0,-5.4063 2.439,-10.2427 6.2749,-13.4707 -2.4219,-3.7461 -6.6348,-6.2256 -11.4277,-6.2256 -7.5112,-5e-4 -13.6001,6.0889 -13.6001,13.5996 0,7.5107 6.0884,13.5996 13.6001,13.5996 2.2354,0 4.3452,-0.5391 6.2056,-1.4951 -0.6807,-1.875 -1.0528,-3.8974 -1.0528,-6.0078 z" /><path
     style="fill:#666666;fill-opacity:1"
     inkscape:connector-curvature="0"
     id="path5194"
     d="m 74.8242,66.9321 c 2.3984,-1.2246 5.1152,-1.9155 7.9922,-1.9155 2.1104,0 4.1328,0.3716 6.0078,1.0527 0.9551,-1.8608 1.4951,-3.9707 1.4951,-6.2065 0,-7.5107 -6.0889,-13.5996 -13.5996,-13.5996 -7.2847,0 -13.231,5.7275 -13.5835,12.9243 4.8882,0.8608 9.0811,3.7393 11.688,7.7446 z" /><circle
     style="fill:#ffcc00;fill-opacity:1"
     sodipodi:ry="13.6001"
     sodipodi:rx="13.6001"
     sodipodi:cy="82.616699"
     sodipodi:cx="82.816399"
     id="circle5196"
     r="13.6001"
     cy="82.616699"
     cx="82.816399" />
<g
     id="g5199"
     style="fill:#ffcc00;fill-opacity:1">
		<path
     style="fill:#ffcc00;fill-opacity:1"
     inkscape:connector-curvature="0"
     id="path5201"
     d="m 20.8057,39.4033 c 0.2109,0.126 0.3877,0.2813 0.5327,0.4658 0.144,0.1855 0.2466,0.3896 0.3062,0.6113 0.0605,0.2217 0.0742,0.4541 0.0425,0.6953 -0.0317,0.2412 -0.1187,0.4814 -0.2612,0.7197 -0.1416,0.2393 -0.3105,0.4297 -0.5078,0.5732 -0.1968,0.1426 -0.4072,0.2412 -0.6318,0.2939 -0.2241,0.0537 -0.4521,0.0596 -0.6831,0.0225 -0.231,-0.0391 -0.4521,-0.1221 -0.6631,-0.2471 -0.2104,-0.125 -0.3892,-0.2803 -0.5332,-0.4658 -0.144,-0.1846 -0.2466,-0.3887 -0.3066,-0.6113 -0.0591,-0.2217 -0.0742,-0.4531 -0.0415,-0.6943 0.0322,-0.2422 0.1187,-0.4814 0.2603,-0.7207 0.1421,-0.2373 0.312,-0.4287 0.5088,-0.5723 0.1968,-0.1436 0.4072,-0.2422 0.6313,-0.2939 0.2241,-0.0527 0.4521,-0.0605 0.6836,-0.0215 0.2307,0.0382 0.4519,0.1202 0.6629,0.2452 z" />
		<path
     style="fill:#ffcc00;fill-opacity:1"
     inkscape:connector-curvature="0"
     id="path5203"
     d="m 24.6094,25.8936 0.9766,-1.0586 8.1514,7.5156 -0.9756,1.0586 -3.7881,-3.4932 -2.4727,2.6826 3.7881,3.4932 -0.9766,1.0586 -8.1523,-7.5166 0.9766,-1.0596 3.4463,3.1777 2.4731,-2.6807 -3.4468,-3.1776 z" />
		<path
     style="fill:#ffcc00;fill-opacity:1"
     inkscape:connector-curvature="0"
     id="path5205"
     d="m 34.3511,24.0391 c 0.5356,-0.1836 1.0698,-0.1777 1.6025,0.0176 0.5327,0.1943 1.0391,0.5918 1.52,1.1914 0.6406,0.7969 0.9531,1.583 0.9365,2.3555 -0.0171,0.7715 -0.4155,1.4727 -1.1982,2.0986 -0.3081,0.248 -0.6436,0.4424 -1.0088,0.585 -0.3647,0.1416 -0.7153,0.2246 -1.0513,0.248 l -0.4141,-1.1035 c 0.2856,-0.0361 0.5664,-0.0986 0.8452,-0.1855 0.2803,-0.0879 0.5356,-0.2246 0.7686,-0.4121 0.4238,-0.3398 0.6504,-0.7363 0.6768,-1.1885 0.0269,-0.4521 -0.1899,-0.9658 -0.6509,-1.5391 -0.46,-0.5742 -0.939,-0.9023 -1.4341,-0.9834 -0.4956,-0.0811 -1.0308,0.1094 -1.6045,0.5693 l -0.3247,0.2607 -0.7314,-0.9111 0.2754,-0.2207 c 0.499,-0.4004 0.7622,-0.8301 0.7896,-1.29 0.0283,-0.459 -0.1489,-0.9277 -0.5293,-1.4014 -0.3604,-0.4482 -0.7241,-0.707 -1.0928,-0.7744 -0.3682,-0.0664 -0.7109,0.0264 -1.0264,0.2803 -0.2163,0.1738 -0.3887,0.3809 -0.5176,0.6201 -0.1289,0.2402 -0.2139,0.4795 -0.2549,0.7178 L 28.871,22.5274 c 0.0566,-0.373 0.1924,-0.7275 0.4072,-1.0645 0.2158,-0.3359 0.4683,-0.6221 0.7598,-0.8555 0.6489,-0.5205 1.3115,-0.7168 1.9878,-0.5898 0.6768,0.127 1.2856,0.5273 1.8267,1.2012 0.3799,0.4746 0.6084,0.9512 0.6846,1.4297 0.0762,0.4794 0.0147,0.9433 -0.186,1.3906 z" />
		<path
     style="fill:#ffcc00;fill-opacity:1"
     inkscape:connector-curvature="0"
     id="path5207"
     d="m 48.7798,20.6963 0.5664,1.0938 -4.3901,2.2754 -5.1021,-9.8447 1.2793,-0.6631 4.5347,8.751 3.1118,-1.6124 z" />
		<path
     style="fill:#ffcc00;fill-opacity:1"
     inkscape:connector-curvature="0"
     id="path5209"
     d="m 48.8101,13.1377 c 0.2212,-0.2041 0.4663,-0.3906 0.7349,-0.5605 0.2671,-0.1689 0.5723,-0.3145 0.9141,-0.4365 0.7026,-0.251 1.354,-0.2363 1.9521,0.043 0.5972,0.2783 1.062,0.8799 1.3921,1.8047 l 1.8721,5.2432 c -0.3257,0.2295 -0.666,0.4414 -1.0215,0.6367 -0.355,0.1953 -0.7139,0.3574 -1.0747,0.4854 -0.3623,0.1299 -0.7178,0.2051 -1.0659,0.2285 -0.3491,0.0225 -0.6772,-0.0254 -0.9849,-0.1416 -0.3081,-0.1162 -0.5869,-0.3027 -0.8369,-0.5586 -0.2495,-0.2568 -0.4541,-0.6064 -0.6118,-1.0469 -0.147,-0.4131 -0.2129,-0.7939 -0.1963,-1.1455 0.0161,-0.3506 0.0977,-0.6689 0.2451,-0.9541 0.1479,-0.2852 0.3535,-0.5342 0.6172,-0.7461 0.2637,-0.2139 0.5713,-0.3838 0.9229,-0.5088 0.3315,-0.1182 0.7124,-0.209 1.1426,-0.2715 l -0.2573,-0.7246 c -0.2085,-0.582 -0.4673,-0.9482 -0.7754,-1.0986 -0.3086,-0.1504 -0.6733,-0.1504 -1.0957,0 -0.231,0.083 -0.4414,0.1826 -0.6309,0.3027 -0.1899,0.1191 -0.3823,0.2695 -0.5776,0.4521 l -0.6642,-1.003 z m 2.5605,5.2187 c 0.165,0.4619 0.4077,0.7607 0.7271,0.8955 0.3203,0.1348 0.7012,0.123 1.1436,-0.0342 0.271,-0.0977 0.5547,-0.2383 0.8506,-0.4229 l -0.8984,-2.5166 c -0.3301,0.0273 -0.6406,0.0928 -0.9316,0.1973 -0.1909,0.0674 -0.3643,0.1543 -0.5186,0.2617 -0.1553,0.1055 -0.2759,0.2334 -0.3643,0.3838 -0.0879,0.1504 -0.1348,0.3262 -0.1426,0.5273 -0.0078,0.2011 0.037,0.4376 0.1342,0.7081 z" />
		<path
     style="fill:#ffcc00;fill-opacity:1"
     inkscape:connector-curvature="0"
     id="path5211"
     d="m 57.9082,10.2266 c 0.1494,-0.1172 0.3057,-0.2188 0.4683,-0.3018 0.1616,-0.083 0.3633,-0.1504 0.6035,-0.2002 0.5112,-0.1074 0.9717,-0.0977 1.3799,0.0293 0.4077,0.127 0.7656,0.3516 1.0732,0.6738 0.3066,0.3223 0.5703,0.7363 0.7915,1.2402 0.2197,0.5039 0.3989,1.085 0.5371,1.7422 0.3037,1.4521 0.2734,2.5908 -0.0918,3.4199 -0.3657,0.8291 -1.1016,1.3594 -2.208,1.5918 -0.3872,0.0801 -0.7754,0.1211 -1.168,0.1221 -0.3926,0 -0.748,-0.0313 -1.0664,-0.0957 L 55.7734,6.751 l 1.2969,-0.5166 0.8379,3.9922 z m 1.4814,7.0625 c 0.1548,0.0107 0.3022,0.0098 0.4414,-0.002 0.1392,-0.0127 0.2656,-0.0313 0.3809,-0.0557 0.605,-0.127 1.0059,-0.4648 1.2017,-1.0127 0.1953,-0.5479 0.1758,-1.3857 -0.0615,-2.5127 -0.1221,-0.585 -0.2622,-1.0674 -0.418,-1.4482 -0.1567,-0.3818 -0.3301,-0.6777 -0.522,-0.8887 -0.1909,-0.2109 -0.397,-0.3467 -0.6167,-0.4102 -0.2207,-0.0625 -0.4619,-0.0664 -0.7227,-0.0117 -0.3442,0.0723 -0.6509,0.2246 -0.9175,0.4541 l 1.2344,5.8878 z" />
		<path
     style="fill:#ffcc00;fill-opacity:1"
     inkscape:connector-curvature="0"
     id="path5213"
     d="m 71.1362,12.7305 c 0.042,0.6602 0.022,1.2627 -0.0615,1.8076 -0.0825,0.5449 -0.2314,1.0166 -0.4468,1.415 -0.2148,0.3975 -0.4995,0.7158 -0.8535,0.9521 -0.3535,0.2363 -0.7803,0.3701 -1.2813,0.4014 -0.4995,0.0322 -0.9429,-0.0469 -1.3291,-0.2363 -0.3862,-0.1885 -0.7114,-0.4668 -0.9746,-0.835 -0.2646,-0.3682 -0.4717,-0.8174 -0.623,-1.3486 -0.1514,-0.5293 -0.2476,-1.124 -0.2896,-1.7842 -0.0415,-0.6494 -0.021,-1.25 0.0615,-1.7998 0.0825,-0.5508 0.231,-1.0273 0.4463,-1.4307 0.2144,-0.4043 0.5015,-0.7246 0.8604,-0.9609 0.3589,-0.2363 0.7886,-0.3701 1.2896,-0.4023 0.5005,-0.0313 0.9404,0.0469 1.3223,0.2363 0.3809,0.1904 0.7026,0.4717 0.9673,0.8447 0.2642,0.374 0.4717,0.8281 0.623,1.3633 0.1518,0.5352 0.249,1.128 0.289,1.7774 z m -1.436,0.0908 C 69.6699,12.3535 69.6157,11.9268 69.5381,11.541 69.46,11.1562 69.3535,10.8262 69.2188,10.5517 69.0835,10.2763 68.9151,10.0683 68.7144,9.9267 68.5127,9.7841 68.2793,9.7206 68.0127,9.7382 c -0.2764,0.0176 -0.5039,0.1094 -0.6807,0.2764 -0.1763,0.165 -0.3164,0.3936 -0.4204,0.6836 -0.1055,0.29 -0.1719,0.6299 -0.1997,1.0225 -0.0288,0.3926 -0.0283,0.8223 0.0015,1.29 0.0308,0.4688 0.084,0.8955 0.1616,1.2813 0.0781,0.3857 0.1875,0.7119 0.3271,0.9814 0.1396,0.2686 0.3076,0.4736 0.5044,0.6162 0.1958,0.1426 0.4326,0.2051 0.709,0.1875 0.2656,-0.0166 0.4897,-0.1084 0.6719,-0.2744 0.1816,-0.167 0.3228,-0.3916 0.4224,-0.6758 0.0996,-0.2842 0.1631,-0.6221 0.1914,-1.0146 0.0288,-0.3916 0.0283,-0.8223 -0.001,-1.291 z" />
		<path
     style="fill:#ffcc00;fill-opacity:1"
     inkscape:connector-curvature="0"
     id="path5215"
     d="M 77.7861,10.0742 C 77.455,9.9053 77.0752,9.8086 76.6504,9.7832 76.2559,9.7607 75.8828,9.8086 75.5352,9.9277 l -0.415,7.1563 -1.375,-0.0801 0.4658,-8.0195 c 0.3174,-0.1309 0.6797,-0.2354 1.084,-0.3135 0.4063,-0.0771 0.8477,-0.1025 1.3281,-0.0752 0.2549,0.0156 0.5098,0.0459 0.7637,0.0928 0.2529,0.0469 0.4883,0.1191 0.708,0.2168 l -0.3087,1.1689 z" />
		<path
     style="fill:#ffcc00;fill-opacity:1"
     inkscape:connector-curvature="0"
     id="path5217"
     d="m 80.9326,9.3848 c 0.2939,-0.0693 0.5986,-0.1113 0.915,-0.126 0.3164,-0.0156 0.6543,0.0059 1.0117,0.0674 0.7363,0.127 1.2959,0.459 1.6787,0.9961 0.3838,0.5371 0.4932,1.2891 0.3262,2.2559 l -0.9453,5.4873 c -0.3965,0.04 -0.7979,0.0576 -1.2021,0.0527 -0.4053,-0.0049 -0.7969,-0.04 -1.1758,-0.1045 -0.3779,-0.0654 -0.7256,-0.1748 -1.04,-0.3252 -0.3145,-0.1523 -0.5771,-0.3535 -0.7881,-0.6074 -0.2109,-0.252 -0.3623,-0.5518 -0.4551,-0.8975 -0.0918,-0.3467 -0.0977,-0.75 -0.0176,-1.2129 0.0742,-0.4316 0.2051,-0.7959 0.3916,-1.0938 0.1865,-0.2988 0.4141,-0.5352 0.6826,-0.7109 0.2676,-0.1758 0.5703,-0.291 0.9043,-0.3477 0.334,-0.0557 0.6855,-0.0518 1.0527,0.0117 0.3477,0.0596 0.7236,0.168 1.1299,0.3242 l 0.1299,-0.7578 c 0.1055,-0.6084 0.0605,-1.0547 -0.1348,-1.3379 -0.1943,-0.2822 -0.5127,-0.4619 -0.9541,-0.5371 -0.2422,-0.041 -0.4756,-0.0576 -0.6982,-0.0469 -0.2246,0.0098 -0.4648,0.0469 -0.7246,0.1094 L 80.9326,9.3848 z m -0.333,5.8037 c -0.084,0.4834 -0.0195,0.8633 0.1934,1.1367 0.2119,0.2754 0.5488,0.4521 1.0117,0.5322 0.2852,0.0488 0.6006,0.0654 0.9502,0.0488 l 0.4541,-2.6328 c -0.3018,-0.1377 -0.6045,-0.2334 -0.9092,-0.2871 -0.2002,-0.0332 -0.3936,-0.043 -0.5791,-0.0254 -0.1875,0.0166 -0.3564,0.0684 -0.5059,0.1563 -0.1514,0.0879 -0.2793,0.2168 -0.3848,0.3887 -0.1054,0.1699 -0.1816,0.3984 -0.2304,0.6826 z" />
		<path
     style="fill:#ffcc00;fill-opacity:1"
     inkscape:connector-curvature="0"
     id="path5219"
     d="m 90.1797,11.2578 2.0244,0.6045 -0.3398,1.1348 -2.0225,-0.6055 -1.3252,4.4307 c -0.1641,0.5518 -0.1807,0.9678 -0.0469,1.2471 0.1338,0.2803 0.3691,0.4688 0.7061,0.5693 0.1738,0.0527 0.3477,0.0771 0.5215,0.0732 0.1738,-0.0039 0.3281,-0.0244 0.4609,-0.0635 l -0.0547,1.1367 c -0.4932,0.1201 -0.9736,0.1094 -1.4443,-0.0313 -0.7568,-0.2256 -1.2568,-0.6064 -1.5029,-1.1416 -0.2471,-0.5361 -0.2236,-1.2949 0.0703,-2.2764 l 2.2813,-7.6338 1.3867,0.1641 -0.7149,2.3917 z" />
		<path
     style="fill:#ffcc00;fill-opacity:1"
     inkscape:connector-curvature="0"
     id="path5221"
     d="m 98.4082,18.9287 c -0.2646,0.6064 -0.5586,1.1328 -0.8809,1.5801 -0.3242,0.4463 -0.6719,0.7988 -1.0449,1.0537 -0.374,0.2559 -0.7715,0.4082 -1.1953,0.457 -0.4219,0.0488 -0.8633,-0.0283 -1.3223,-0.2285 -0.46,-0.2002 -0.8174,-0.4727 -1.0742,-0.8184 -0.2578,-0.3447 -0.4189,-0.7412 -0.4854,-1.1885 -0.0664,-0.4482 -0.0459,-0.9424 0.0625,-1.4834 0.1064,-0.54 0.293,-1.1133 0.5576,-1.7197 0.2598,-0.5967 0.5527,-1.1201 0.8779,-1.5732 0.3252,-0.4512 0.6748,-0.8066 1.0518,-1.0674 0.375,-0.2617 0.7764,-0.415 1.2041,-0.4619 0.4277,-0.0449 0.8711,0.0322 1.3301,0.2324 0.46,0.2002 0.8154,0.4717 1.0674,0.8145 0.252,0.3428 0.4102,0.7402 0.4746,1.1934 0.0644,0.4532 0.041,0.9521 -0.0684,1.4971 -0.1093,0.5458 -0.2948,1.1171 -0.5546,1.7128 z m -1.3203,-0.5752 c 0.1875,-0.4307 0.334,-0.834 0.4414,-1.2129 0.1074,-0.3779 0.1631,-0.7207 0.1689,-1.0264 0.0049,-0.3057 -0.0498,-0.5684 -0.1631,-0.7871 -0.1143,-0.2188 -0.293,-0.3799 -0.5381,-0.4873 -0.2539,-0.1104 -0.498,-0.1328 -0.7314,-0.0654 -0.2324,0.0674 -0.4609,0.2061 -0.6875,0.415 -0.2246,0.21 -0.4395,0.4834 -0.6445,0.8184 -0.2051,0.3359 -0.4004,0.7188 -0.5879,1.1494 -0.1875,0.4297 -0.335,0.834 -0.4424,1.2129 -0.1064,0.3779 -0.1592,0.7178 -0.1572,1.0215 0.002,0.3027 0.0566,0.5635 0.166,0.7793 0.1094,0.2168 0.291,0.3809 0.5449,0.4912 0.2441,0.1064 0.4863,0.127 0.7246,0.0625 0.2373,-0.0645 0.4648,-0.2021 0.6836,-0.4082 0.2188,-0.208 0.4297,-0.4795 0.6348,-0.8154 0.2051,-0.334 0.4004,-0.7178 0.5879,-1.1475 z" />
		<path
     style="fill:#ffcc00;fill-opacity:1"
     inkscape:connector-curvature="0"
     id="path5223"
     d="m 105.5391,19.6074 c -0.2188,-0.3018 -0.5117,-0.5615 -0.8789,-0.7773 -0.3398,-0.2021 -0.6924,-0.3291 -1.0566,-0.3828 l -3.6426,6.1729 -1.1855,-0.6992 4.083,-6.917 c 0.3408,0.0283 0.71,0.1006 1.1064,0.2168 0.3964,0.1162 0.8008,0.2959 1.2148,0.54 0.2197,0.1299 0.4316,0.2734 0.6367,0.4316 0.2041,0.1582 0.3809,0.3301 0.5303,0.5176 l -0.8076,0.8974 z" />
		<path
     style="fill:#ffcc00;fill-opacity:1"
     inkscape:connector-curvature="0"
     id="path5225"
     d="m 104.8418,27.8613 -1.1143,-0.8076 4.9346,-6.7988 1.1133,0.8076 -4.9336,6.7988 z m 5.251,-8.4062 c -0.1992,-0.1445 -0.3203,-0.335 -0.3662,-0.5723 -0.0449,-0.2373 0.0137,-0.4678 0.1768,-0.6924 0.1631,-0.2246 0.3643,-0.3525 0.6035,-0.3828 0.2392,-0.0303 0.458,0.0264 0.6572,0.1709 0.1992,0.1445 0.3203,0.335 0.3652,0.5723 0.0459,0.2373 -0.0137,0.4678 -0.1758,0.6924 -0.1631,0.2246 -0.3633,0.3516 -0.6035,0.3818 -0.2402,0.0313 -0.459,-0.0264 -0.6572,-0.1699 z" />
		<path
     style="fill:#ffcc00;fill-opacity:1"
     inkscape:connector-curvature="0"
     id="path5227"
     d="m 110.3506,27.4072 c -0.2637,0.3086 -0.4834,0.6084 -0.6611,0.9014 -0.1777,0.292 -0.2969,0.5801 -0.3574,0.8623 -0.0605,0.2832 -0.0488,0.5566 0.0371,0.8193 0.0859,0.2646 0.2666,0.5205 0.5449,0.7705 0.2295,0.2061 0.4717,0.3643 0.7266,0.4717 0.2549,0.1074 0.4473,0.1768 0.5771,0.208 l -0.5488,0.9922 c -0.167,-0.0225 -0.4092,-0.1006 -0.7256,-0.2354 -0.3164,-0.1338 -0.6416,-0.3506 -0.9746,-0.6514 -0.4355,-0.3916 -0.7305,-0.8018 -0.8848,-1.2275 -0.1543,-0.4268 -0.1973,-0.8652 -0.126,-1.3184 0.0703,-0.4541 0.2441,-0.9141 0.5225,-1.3818 0.2773,-0.4678 0.6309,-0.9395 1.0596,-1.415 1.0342,-1.1494 1.9814,-1.8184 2.8408,-2.0068 0.8574,-0.1875 1.6006,0 2.2266,0.5645 0.7051,0.6357 0.9648,1.3496 0.7813,2.1445 -0.1855,0.7949 -0.71,1.6729 -1.5742,2.6318 -0.0781,0.0879 -0.1582,0.1777 -0.2402,0.2676 -0.082,0.0908 -0.1699,0.1807 -0.2637,0.2686 l -2.9601,-2.6661 z m 3.4756,-1.7783 c -0.3408,-0.3086 -0.7422,-0.3604 -1.2031,-0.1592 -0.4629,0.2021 -0.9658,0.5742 -1.5117,1.1162 l 1.8906,1.7021 c 0.5215,-0.5781 0.874,-1.0898 1.0586,-1.5342 0.1845,-0.4433 0.1064,-0.8192 -0.2344,-1.1249 z" />
		<path
     style="fill:#ffcc00;fill-opacity:1"
     inkscape:connector-curvature="0"
     id="path5229"
     d="m 113.959,34.9443 c 0.2676,0.3057 0.5547,0.4619 0.8652,0.4678 0.3086,0.0059 0.6045,-0.1143 0.8867,-0.3594 0.1758,-0.1543 0.2988,-0.3184 0.3672,-0.4912 0.0684,-0.1728 0.1055,-0.3535 0.1113,-0.542 0.005,-0.1895 -0.0137,-0.3848 -0.0566,-0.5879 -0.0429,-0.2031 -0.0801,-0.4121 -0.1104,-0.626 -0.0391,-0.207 -0.0605,-0.4219 -0.0635,-0.6445 -0.004,-0.2236 0.0205,-0.4463 0.0742,-0.6699 0.0527,-0.2236 0.1436,-0.4443 0.2715,-0.6621 0.1289,-0.2178 0.3135,-0.4326 0.5537,-0.6416 0.5225,-0.4561 1.0869,-0.6621 1.6924,-0.6162 0.6055,0.0449 1.1504,0.3447 1.6338,0.8994 0.2041,0.2334 0.3662,0.4805 0.4883,0.7422 0.1221,0.2617 0.2061,0.4932 0.2529,0.6924 l -1.0313,0.4971 c -0.0459,-0.2158 -0.1123,-0.4131 -0.1982,-0.5928 -0.085,-0.1797 -0.2021,-0.3545 -0.3496,-0.5234 -0.2246,-0.2568 -0.4775,-0.3965 -0.7588,-0.4199 -0.2822,-0.0225 -0.5645,0.0879 -0.8457,0.334 -0.1602,0.1406 -0.2744,0.2891 -0.3418,0.4473 -0.0684,0.1582 -0.1074,0.3232 -0.1191,0.4961 -0.0117,0.1729 -0.008,0.3535 0.0137,0.5391 0.0215,0.1865 0.0518,0.377 0.0918,0.5674 0.0449,0.2305 0.0801,0.4648 0.1055,0.7051 0.0254,0.2403 0.0176,0.4795 -0.0215,0.7188 -0.0391,0.2393 -0.1211,0.4785 -0.2471,0.7148 -0.126,0.2373 -0.3213,0.4707 -0.5869,0.7031 -0.5547,0.4834 -1.1426,0.709 -1.7637,0.6777 -0.6221,-0.0303 -1.2061,-0.3604 -1.7539,-0.9863 -0.2793,-0.3223 -0.4873,-0.6504 -0.623,-0.9844 -0.1367,-0.335 -0.2246,-0.5977 -0.2637,-0.7891 l 1.0449,-0.5303 c 0.04,0.1777 0.1104,0.4033 0.209,0.6787 0.0977,0.2753 0.2559,0.537 0.4727,0.786 z" />
		<path
     style="fill:#ffcc00;fill-opacity:1"
     inkscape:connector-curvature="0"
     id="path5231"
     d="m 124.8418,42.1777 c -0.21,0.1279 -0.4297,0.2109 -0.6611,0.251 -0.2314,0.0401 -0.459,0.0352 -0.6836,-0.0166 -0.2236,-0.0498 -0.4346,-0.1475 -0.6338,-0.29 -0.1973,-0.1416 -0.3682,-0.3311 -0.5117,-0.5684 -0.1445,-0.2373 -0.2324,-0.4766 -0.2666,-0.7178 -0.0342,-0.2422 -0.0215,-0.4727 0.0371,-0.6963 0.0586,-0.2217 0.1592,-0.4258 0.3018,-0.6123 0.1436,-0.1855 0.3193,-0.3428 0.5303,-0.4697 0.21,-0.127 0.4297,-0.2109 0.6611,-0.251 0.2314,-0.041 0.459,-0.0352 0.6836,0.0156 0.2246,0.0518 0.4355,0.1484 0.6338,0.29 0.1982,0.1436 0.3682,0.332 0.5127,0.5693 0.1426,0.2373 0.2324,0.4775 0.2656,0.7178 0.0342,0.2412 0.0215,0.4736 -0.0371,0.6963 -0.0586,0.2227 -0.1592,0.4268 -0.3027,0.6133 -0.1427,0.1856 -0.3194,0.3419 -0.5294,0.4688 z" />
	</g><g
     id="g5233"
     style="fill:#ffcc00;fill-opacity:1">
		<path
     style="fill:#ffcc00;fill-opacity:1"
     inkscape:connector-curvature="0"
     id="path5235"
     d="m 19.6587,53.6338 -0.5112,1.3467 -10.3653,-3.9375 0.5112,-1.3457 4.8164,1.8281 1.2954,-3.4102 -4.8164,-1.8291 0.5112,-1.3457 10.3657,3.9375 -0.5117,1.3457 -4.3823,-1.665 -1.2954,3.4102 4.3824,1.665 z" />
		<path
     style="fill:#ffcc00;fill-opacity:1"
     inkscape:connector-curvature="0"
     id="path5237"
     d="m 15.5303,57.5137 c 0.0571,0.2959 0.0869,0.6025 0.0898,0.9199 0.0034,0.3174 -0.0322,0.6514 -0.1084,1.0068 -0.1558,0.7305 -0.5098,1.2764 -1.0615,1.6387 -0.5518,0.3613 -1.3076,0.4404 -2.2671,0.2363 L 6.7378,60.1523 C 6.7139,59.7548 6.7119,59.3535 6.7329,58.9492 c 0.021,-0.4043 0.0718,-0.7949 0.1519,-1.1699 0.0801,-0.376 0.2021,-0.7178 0.3662,-1.0264 0.1641,-0.3086 0.3765,-0.5645 0.6377,-0.7646 0.2607,-0.2002 0.5654,-0.3389 0.915,-0.417 0.3496,-0.0791 0.7534,-0.0693 1.2129,0.0293 0.4272,0.0908 0.7861,0.2363 1.0767,0.4346 0.2906,0.1983 0.5181,0.4346 0.6831,0.71 0.1646,0.2754 0.2686,0.5811 0.311,0.918 0.0425,0.3359 0.0249,0.6865 -0.0527,1.0518 -0.0737,0.3447 -0.1963,0.7158 -0.3691,1.1162 l 0.7515,0.1592 c 0.6045,0.1299 1.0522,0.1016 1.3423,-0.0811 0.2896,-0.1836 0.4819,-0.4941 0.5757,-0.9326 0.0508,-0.2402 0.0757,-0.4717 0.0747,-0.6963 -0.0015,-0.2236 -0.0288,-0.4658 -0.0815,-0.7285 l 1.202,-0.0382 z M 9.7446,56.9502 c -0.48,-0.1025 -0.8613,-0.0527 -1.144,0.1475 -0.2832,0.2012 -0.4736,0.5322 -0.5713,0.9912 -0.0605,0.2813 -0.0898,0.5967 -0.0879,0.9473 l 2.6133,0.5566 c 0.1504,-0.2949 0.2578,-0.5938 0.3223,-0.8955 0.042,-0.1992 0.0586,-0.3916 0.0498,-0.5791 -0.0093,-0.1875 -0.0547,-0.3574 -0.1362,-0.5127 -0.0815,-0.1523 -0.2061,-0.2852 -0.373,-0.3975 -0.1669,-0.1123 -0.3912,-0.1982 -0.673,-0.2578 z" />
		<path
     style="fill:#ffcc00;fill-opacity:1"
     inkscape:connector-curvature="0"
     id="path5239"
     d="m 14.0752,65.1064 c 0.0898,0.4014 0.1602,0.833 0.2095,1.2969 0.0493,0.4629 0.061,0.8857 0.0352,1.2686 -0.0278,0.415 -0.1089,0.79 -0.2437,1.1221 -0.1348,0.334 -0.3428,0.6113 -0.625,0.833 -0.2822,0.2217 -0.6538,0.3838 -1.1147,0.4863 -0.4614,0.1025 -1.0273,0.1318 -1.6978,0.0869 l -5.061,-0.3389 0.0923,-1.373 4.9487,0.3311 c 0.8301,0.0557 1.4438,-0.0088 1.8413,-0.1963 0.3975,-0.1875 0.6157,-0.5742 0.6553,-1.1602 0.0205,-0.3076 -0.0098,-0.6582 -0.0903,-1.0479 l -7.1841,-0.4814 0.0918,-1.3721 8.1425,0.5449 z" />
		<path
     style="fill:#ffcc00;fill-opacity:1"
     inkscape:connector-curvature="0"
     id="path5241"
     d="M 6.2749,79.416 C 5.6797,79.4658 5.1709,79.4297 4.749,79.3076 4.3271,79.1875 3.9775,79.0049 3.7007,78.7607 3.4238,78.5146 3.2124,78.2197 3.0659,77.873 2.9199,77.5263 2.8301,77.1513 2.7969,76.747 2.7696,76.4072 2.7788,76.0644 2.8247,75.7187 2.8716,75.371 2.957,75.0488 3.0825,74.7499 l 1.1724,0.1924 c -0.0908,0.2002 -0.1675,0.4424 -0.2305,0.7246 -0.0615,0.2842 -0.0811,0.5742 -0.0566,0.8721 0.043,0.5215 0.2256,0.918 0.5474,1.1914 0.3218,0.2734 0.8447,0.3799 1.5679,0.3213 L 6.4815,78.0185 C 6.3926,77.8554 6.3174,77.6787 6.2535,77.4912 6.19,77.3047 6.1485,77.0879 6.128,76.8437 c -0.082,-0.999 0.2012,-1.7578 0.8486,-2.2773 0.6479,-0.5186 1.5991,-0.8291 2.8535,-0.9326 0.6699,-0.0537 1.2783,-0.043 1.8247,0.0352 0.5474,0.0781 1.02,0.2314 1.4185,0.4609 0.3989,0.2295 0.7134,0.5439 0.9443,0.9424 0.2309,0.3985 0.3706,0.8955 0.4194,1.4902 0.0322,0.3945 0.0239,0.7822 -0.0249,1.167 -0.0488,0.3838 -0.125,0.7305 -0.2275,1.0381 L 6.2749,79.416 z m 6.9038,-1.9472 c 0.0303,-0.1523 0.0479,-0.2979 0.0527,-0.4375 0.0044,-0.1396 0.002,-0.2676 -0.0078,-0.3848 -0.0522,-0.6377 -0.335,-1.083 -0.8477,-1.335 -0.5137,-0.252 -1.3228,-0.333 -2.4282,-0.2422 -0.9995,0.082 -1.6919,0.2832 -2.0776,0.6045 -0.3857,0.3193 -0.5566,0.7451 -0.5127,1.2783 0.0146,0.1797 0.0498,0.3506 0.106,0.5117 0.0562,0.1611 0.1274,0.3145 0.2144,0.4561 l 5.5009,-0.4511 z" />
		<path
     style="fill:#ffcc00;fill-opacity:1"
     inkscape:connector-curvature="0"
     id="path5243"
     d="m 15.4688,94.3037 c -0.8203,0.2734 -1.5913,0.4482 -2.3135,0.5254 -0.7217,0.0771 -1.3745,0.041 -1.9575,-0.1094 C 10.6143,94.5722 10.1124,94.3056 9.6934,93.9228 9.2734,93.54 8.958,93.0293 8.7456,92.3906 8.5332,91.7539 8.481,91.1562 8.5879,90.5976 8.6943,90.04 8.9365,89.5263 9.315,89.0576 c 0.3779,-0.4678 0.8784,-0.8906 1.5015,-1.2666 0.6221,-0.375 1.3438,-0.6992 2.1631,-0.9717 0.8203,-0.2734 1.5947,-0.4453 2.3232,-0.5195 0.7285,-0.0732 1.3848,-0.0361 1.9678,0.1133 0.5835,0.1475 1.0879,0.4131 1.5122,0.7949 0.4253,0.3818 0.7432,0.8906 0.9556,1.5283 0.2119,0.6387 0.2617,1.2373 0.1504,1.7969 -0.1123,0.5605 -0.3574,1.0742 -0.7354,1.542 -0.3779,0.4697 -0.8818,0.8896 -1.5107,1.2617 -0.63,0.3721 -1.3546,0.6953 -2.1739,0.9668 z m -0.4854,-1.456 c 0.6377,-0.2129 1.2065,-0.4473 1.7061,-0.7031 0.499,-0.2559 0.9082,-0.5381 1.2275,-0.8467 0.3193,-0.3086 0.5371,-0.6416 0.6538,-1.001 0.1167,-0.3584 0.106,-0.7461 -0.0322,-1.1611 -0.1382,-0.415 -0.3613,-0.7314 -0.6694,-0.9492 -0.3086,-0.2188 -0.6826,-0.3545 -1.123,-0.4111 -0.4404,-0.0547 -0.938,-0.0391 -1.4927,0.0508 -0.5552,0.0879 -1.1514,0.2393 -1.7891,0.4502 -0.6377,0.2129 -1.2056,0.4502 -1.7031,0.71 -0.4976,0.2617 -0.9038,0.5449 -1.2173,0.8516 -0.3145,0.3057 -0.5273,0.6387 -0.6387,0.9961 -0.1113,0.3584 -0.0986,0.7441 0.0396,1.1592 0.1382,0.4141 0.3584,0.7324 0.6626,0.9512 0.3027,0.2197 0.6724,0.3584 1.1074,0.416 0.435,0.0576 0.9292,0.0391 1.4824,-0.0537 0.5527,-0.095 1.1484,-0.2483 1.7861,-0.4592 z" />
		<path
     style="fill:#ffcc00;fill-opacity:1"
     inkscape:connector-curvature="0"
     id="path5245"
     d="m 14.814,104.7578 c -0.1128,-0.0967 -0.2358,-0.2217 -0.3711,-0.374 -0.1353,-0.1514 -0.271,-0.3145 -0.4067,-0.4893 -0.1357,-0.1748 -0.2666,-0.3525 -0.3936,-0.5342 -0.126,-0.1807 -0.2324,-0.3506 -0.3174,-0.5107 -0.2061,-0.3857 -0.3491,-0.7617 -0.4307,-1.1289 -0.0811,-0.3691 -0.0693,-0.7256 0.0361,-1.0723 0.1054,-0.3467 0.3213,-0.6846 0.6465,-1.0146 0.3252,-0.3311 0.7842,-0.6543 1.3774,-0.9707 l 4.5601,-2.4316 0.6475,1.2139 -4.5176,2.4092 c -0.7246,0.3867 -1.1768,0.7695 -1.355,1.1484 -0.1782,0.3799 -0.1475,0.7959 0.0933,1.2471 0.0806,0.1504 0.168,0.2969 0.2627,0.4404 0.0938,0.1436 0.207,0.2813 0.3398,0.417 l 6.3813,-3.4033 0.6475,1.2148 -7.2001,3.8388 z" />
		<path
     style="fill:#ffcc00;fill-opacity:1"
     inkscape:connector-curvature="0"
     id="path5247"
     d="m 24.5723,104.7607 1.2192,1.7246 -0.9673,0.6836 -1.2188,-1.7256 -3.7764,2.668 c -0.4702,0.333 -0.7393,0.6504 -0.8066,0.9521 -0.0674,0.3027 10e-4,0.5977 0.2041,0.8857 0.1045,0.1465 0.2266,0.2734 0.3652,0.3779 0.1386,0.1045 0.2729,0.1826 0.4014,0.2354 l -0.7441,0.8584 c -0.4619,-0.209 -0.8345,-0.5137 -1.1172,-0.915 -0.4556,-0.6436 -0.6152,-1.2529 -0.4775,-1.8271 0.1362,-0.5732 0.623,-1.1553 1.4595,-1.7461 l 6.5073,-4.5977 0.9897,0.9844 -2.0385,1.4414 z" />
		<path
     style="fill:#ffcc00;fill-opacity:1"
     inkscape:connector-curvature="0"
     id="path5249"
     d="m 23.4795,113.9844 c -0.0581,0.0625 -0.1172,0.1201 -0.1777,0.1729 -0.0605,0.0508 -0.1235,0.1055 -0.1885,0.1611 -0.5176,0.4453 -1.0776,0.7998 -1.6807,1.0635 -0.6025,0.2646 -1.2339,0.4619 -1.8945,0.5938 l -0.417,-0.9287 c 0.5864,-0.1523 1.1201,-0.3779 1.6001,-0.6777 0.4805,-0.3008 0.9067,-0.6104 1.2793,-0.9307 0.105,-0.0898 0.2046,-0.1787 0.2983,-0.2656 0.0933,-0.0879 0.1807,-0.1738 0.2637,-0.2588 l 0.917,1.0702 z" />
		<path
     style="fill:#ffcc00;fill-opacity:1"
     inkscape:connector-curvature="0"
     id="path5251"
     d="m 39.3833,116.0488 1.1362,0.8838 -6.8105,8.751 -1.1362,-0.8848 3.1646,-4.0654 -2.8789,-2.2412 -3.1641,4.0664 -1.1367,-0.8848 6.8105,-8.75 1.1362,0.8838 -2.8794,3.7002 2.8789,2.2402 2.8794,-3.6992 z" />
		<path
     style="fill:#ffcc00;fill-opacity:1"
     inkscape:connector-curvature="0"
     id="path5253"
     d="m 41.8711,121.1367 c 0.2998,0.0303 0.6016,0.0908 0.9058,0.1797 0.3042,0.0879 0.6152,0.2207 0.9331,0.3965 0.6533,0.3594 1.0732,0.8584 1.2603,1.4902 0.186,0.6328 0.0425,1.3799 -0.4321,2.2383 l -2.6914,4.873 c -0.3877,-0.0908 -0.7725,-0.2051 -1.1533,-0.3428 -0.3808,-0.1377 -0.7402,-0.2988 -1.0762,-0.4844 -0.336,-0.1856 -0.6279,-0.4023 -0.876,-0.6484 -0.2471,-0.2461 -0.4297,-0.5244 -0.5459,-0.8311 -0.1162,-0.3086 -0.1611,-0.6416 -0.1343,-0.998 0.0264,-0.3574 0.1528,-0.7412 0.3804,-1.1514 0.2109,-0.3828 0.4531,-0.6836 0.7275,-0.9053 0.2739,-0.2197 0.5664,-0.3691 0.8779,-0.4482 0.311,-0.0771 0.6338,-0.0879 0.9678,-0.0303 0.3345,0.0566 0.665,0.1738 0.9922,0.3555 0.3076,0.1699 0.6279,0.3945 0.9604,0.6758 l 0.3716,-0.6719 c 0.2988,-0.541 0.4023,-0.9775 0.311,-1.3096 -0.0918,-0.3301 -0.3335,-0.6035 -0.7256,-0.8203 -0.2153,-0.1182 -0.4292,-0.21 -0.644,-0.2734 -0.2148,-0.0634 -0.4551,-0.1074 -0.7212,-0.1328 l 0.312,-1.1611 z m -2.2178,5.3721 c -0.2373,0.4297 -0.3003,0.8096 -0.1899,1.1387 0.1108,0.3291 0.3716,0.6064 0.7827,0.833 0.252,0.1396 0.5449,0.2598 0.8799,0.3594 l 1.292,-2.3389 c -0.2388,-0.2295 -0.4937,-0.4189 -0.7646,-0.5693 -0.1777,-0.0967 -0.3569,-0.1699 -0.5391,-0.2148 -0.1816,-0.0459 -0.3584,-0.0518 -0.5288,-0.0186 -0.1714,0.0342 -0.3345,0.1152 -0.4897,0.2422 -0.1559,0.1269 -0.3033,0.3163 -0.4425,0.5683 z" />
		<path
     style="fill:#ffcc00;fill-opacity:1"
     inkscape:connector-curvature="0"
     id="path5255"
     d="m 48.0625,133.4453 c -0.5352,-0.2109 -0.9399,-0.4941 -1.2139,-0.8438 -0.2744,-0.3496 -0.4512,-0.75 -0.5303,-1.1992 -0.0791,-0.4512 -0.0674,-0.9434 0.0352,-1.4766 0.103,-0.5332 0.2705,-1.0918 0.5029,-1.6768 0.5127,-1.2891 1.1484,-2.2041 1.9092,-2.7451 0.7603,-0.541 1.6162,-0.6221 2.5684,-0.2441 0.2871,0.1143 0.5308,0.25 0.7314,0.4111 0.2002,0.1602 0.3779,0.333 0.5332,0.5205 l -0.7471,0.9268 c -0.2285,-0.3213 -0.5313,-0.5557 -0.9077,-0.7051 -0.5352,-0.2129 -1.0259,-0.127 -1.4717,0.2598 -0.4458,0.3848 -0.8716,1.0869 -1.2773,2.1074 -0.1694,0.4268 -0.3013,0.8311 -0.3955,1.2129 -0.0942,0.3809 -0.1309,0.7246 -0.1089,1.0322 0.0215,0.3066 0.1045,0.5742 0.2485,0.8047 0.144,0.2295 0.3745,0.4063 0.6919,0.5322 0.2178,0.0869 0.4238,0.1387 0.6196,0.1514 0.1948,0.0166 0.3896,0.01 0.584,-0.0166 l -0.1138,1.1094 c -0.2021,0.0459 -0.4521,0.0615 -0.75,0.0449 -0.2982,-0.0146 -0.601,-0.0829 -0.9081,-0.206 z" />
		<path
     style="fill:#ffcc00;fill-opacity:1"
     inkscape:connector-curvature="0"
     id="path5257"
     d="m 60.1572,128.0918 c -0.6255,0.6299 -1.2168,1.2012 -1.7729,1.7119 -0.5562,0.5117 -1.1001,0.9854 -1.6313,1.4199 0.1729,0.3535 0.3418,0.7441 0.5078,1.1719 0.1646,0.4287 0.3159,0.8682 0.4536,1.3164 0.1372,0.4502 0.2593,0.8945 0.3657,1.3359 0.1064,0.4414 0.1875,0.8564 0.2412,1.2451 l -1.4556,-0.375 c -0.0669,-0.3828 -0.1553,-0.7852 -0.2661,-1.2129 -0.1104,-0.4258 -0.2334,-0.8457 -0.3682,-1.2607 -0.1348,-0.416 -0.2744,-0.8145 -0.4189,-1.1934 -0.145,-0.3799 -0.2871,-0.7041 -0.4272,-0.9707 l -1.0298,3.9873 -1.3325,-0.3428 3.0435,-11.7891 1.3926,0.1113 -1.9058,7.3818 c 0.2485,-0.2002 0.5176,-0.4277 0.8076,-0.6826 0.2896,-0.2539 0.5781,-0.5127 0.8647,-0.7744 0.2861,-0.2607 0.5596,-0.5166 0.8213,-0.7676 0.2617,-0.251 0.4849,-0.4795 0.6694,-0.6855 l 1.4409,0.3732 z" />
		<path
     style="fill:#ffcc00;fill-opacity:1"
     inkscape:connector-curvature="0"
     id="path5259"
     d="m 67.8926,136.4805 c 0.5757,0.0293 1.0283,-0.1064 1.3594,-0.4102 0.3311,-0.3027 0.5107,-0.7266 0.5391,-1.2695 0.0146,-0.2881 -0.0205,-0.5449 -0.1045,-0.7734 -0.084,-0.2295 -0.1987,-0.4395 -0.3438,-0.6279 -0.145,-0.1895 -0.3154,-0.3633 -0.5098,-0.5234 -0.1943,-0.1582 -0.3945,-0.3184 -0.5996,-0.4795 -0.2363,-0.1826 -0.4824,-0.3779 -0.7383,-0.584 -0.2568,-0.2051 -0.4878,-0.4414 -0.6924,-0.708 -0.2056,-0.2676 -0.3682,-0.5742 -0.4893,-0.9229 -0.1206,-0.3477 -0.1689,-0.751 -0.1455,-1.209 0.0234,-0.4463 0.1216,-0.8486 0.2949,-1.2021 0.1729,-0.3545 0.4023,-0.6514 0.6875,-0.8936 0.2852,-0.2412 0.6196,-0.4219 1.0054,-0.541 0.3853,-0.1182 0.7964,-0.167 1.2329,-0.1445 0.4263,0.0234 0.8174,0.0977 1.1743,0.2217 0.3564,0.126 0.6533,0.2695 0.8911,0.4307 l -0.5068,1.1123 c -0.2158,-0.1611 -0.4521,-0.2881 -0.709,-0.3809 -0.2568,-0.0947 -0.5293,-0.1494 -0.8164,-0.1631 -0.5225,-0.0273 -0.9482,0.0918 -1.2764,0.3574 -0.3291,0.2666 -0.5078,0.6719 -0.5361,1.2139 -0.0151,0.2988 0.0215,0.5615 0.1113,0.792 0.0898,0.2285 0.2119,0.4365 0.3682,0.627 0.1553,0.1895 0.3384,0.3652 0.5498,0.5244 0.21,0.1611 0.4336,0.3281 0.6704,0.5 0.2368,0.1729 0.478,0.3613 0.7241,0.5664 0.2451,0.2051 0.4653,0.4385 0.6602,0.7002 0.1943,0.2607 0.3496,0.5615 0.4658,0.9053 0.1152,0.3418 0.1611,0.7422 0.1377,1.2002 -0.0215,0.415 -0.106,0.8066 -0.2534,1.1729 -0.147,0.3662 -0.3638,0.6836 -0.6499,0.9512 -0.2861,0.2686 -0.6396,0.4736 -1.0576,0.6182 -0.4189,0.1436 -0.9053,0.2012 -1.459,0.1719 -0.5112,-0.0264 -0.9556,-0.1084 -1.333,-0.2451 -0.3774,-0.1377 -0.7109,-0.3096 -0.998,-0.5176 l 0.5068,-1.126 c 0.2676,0.1855 0.5459,0.335 0.8335,0.4521 0.2876,0.116 0.6236,0.1834 1.0064,0.2039 z" />
		<path
     style="fill:#ffcc00;fill-opacity:1"
     inkscape:connector-curvature="0"
     id="path5261"
     d="m 75.543,129.0566 2.1074,-0.1416 0.0791,1.1826 -2.1074,0.1406 0.3096,4.6123 c 0.0391,0.5762 0.1699,0.9707 0.3926,1.1855 0.2227,0.2148 0.5098,0.3096 0.8613,0.2861 0.1807,-0.0117 0.3516,-0.0498 0.5127,-0.1133 0.1621,-0.0654 0.2979,-0.1377 0.4111,-0.2197 l 0.3447,1.083 c -0.4189,0.2852 -0.874,0.4424 -1.3633,0.4766 -0.7871,0.0518 -1.3896,-0.1299 -1.8076,-0.5449 -0.4189,-0.415 -0.6621,-1.1348 -0.7305,-2.1563 l -0.5342,-7.9492 1.3574,-0.332 0.1671,2.4903 z" />
		<path
     style="fill:#ffcc00;fill-opacity:1"
     inkscape:connector-curvature="0"
     id="path5263"
     d="m 87,135.5938 c -0.125,0.0801 -0.2803,0.1621 -0.4648,0.2471 -0.1836,0.0859 -0.3799,0.167 -0.5869,0.2471 -0.207,0.0791 -0.416,0.1523 -0.625,0.2217 -0.21,0.0684 -0.4033,0.1201 -0.5811,0.1553 -0.4287,0.084 -0.8311,0.1123 -1.2061,0.084 -0.376,-0.0293 -0.7139,-0.1445 -1.0146,-0.3467 -0.3008,-0.2012 -0.5625,-0.5049 -0.7842,-0.9121 -0.2217,-0.4082 -0.3984,-0.9414 -0.5283,-1.5996 l -1.0029,-5.0703 1.3496,-0.2666 0.9932,5.0225 c 0.1602,0.8047 0.3945,1.3496 0.7061,1.6309 0.3105,0.2803 0.7178,0.3701 1.2207,0.2705 0.167,-0.0322 0.333,-0.0732 0.4971,-0.1221 0.1641,-0.0489 0.3301,-0.1162 0.498,-0.2041 L 84.0675,127.8576 85.4171,127.59 87,135.5938 z" />
		<path
     style="fill:#ffcc00;fill-opacity:1"
     inkscape:connector-curvature="0"
     id="path5265"
     d="m 89.6152,122.0957 c 0.2891,-0.1104 0.5547,-0.1777 0.7969,-0.2002 0.2422,-0.0244 0.4463,-0.0273 0.6123,-0.0117 l 0.1182,1.1191 c -0.166,-0.0156 -0.3311,-0.0137 -0.4932,0.009 -0.1631,0.0215 -0.3291,0.0654 -0.499,0.1299 -0.2295,0.0879 -0.4033,0.1992 -0.5225,0.3369 -0.1191,0.1367 -0.1924,0.2891 -0.2178,0.459 -0.0273,0.1699 -0.0186,0.3574 0.0254,0.5635 0.0449,0.2061 0.1084,0.418 0.1914,0.6377 l 0.416,1.0918 2.0186,-0.7695 0.4219,1.1074 -2.0186,0.7686 2.5684,6.7422 -1.2861,0.4902 -3.4053,-8.9414 c -0.3232,-0.8467 -0.3838,-1.5732 -0.1816,-2.1816 0.2031,-0.6085 0.6875,-1.0587 1.455,-1.3507 z m 4.5752,-1.7422 c 0.2891,-0.1113 0.5547,-0.1777 0.7969,-0.2012 0.2422,-0.0235 0.4463,-0.0264 0.6123,-0.0107 l 0.1182,1.1182 c -0.166,-0.0156 -0.3311,-0.0127 -0.4932,0.009 -0.1631,0.0215 -0.3291,0.0664 -0.499,0.1299 -0.2295,0.0869 -0.4033,0.2002 -0.5225,0.3369 -0.1192,0.1367 -0.1914,0.2891 -0.2188,0.459 -0.0264,0.1699 -0.0176,0.3574 0.0273,0.5645 0.043,0.2051 0.1074,0.417 0.1904,0.6367 l 0.416,1.0918 2.0186,-0.7695 0.4219,1.1074 -2.0186,0.7686 2.5684,6.7432 -1.2861,0.4893 -3.4053,-8.9414 c -0.3232,-0.8457 -0.3838,-1.5732 -0.1807,-2.1816 0.2013,-0.6087 0.6867,-1.0589 1.4542,-1.3499 z" />
		<path
     style="fill:#ffcc00;fill-opacity:1"
     inkscape:connector-curvature="0"
     id="path5267"
     d="m 102.4482,127.9121 c 0.0498,0.0703 0.0928,0.1406 0.1299,0.2109 0.0381,0.0713 0.0771,0.1445 0.1172,0.2188 0.3193,0.6035 0.542,1.2275 0.667,1.875 0.125,0.6455 0.1787,1.3057 0.1621,1.9785 l -0.9971,0.2021 c -0.0195,-0.6045 -0.123,-1.1748 -0.3096,-1.7109 -0.1865,-0.5332 -0.3955,-1.0176 -0.626,-1.4512 -0.0645,-0.1221 -0.1289,-0.2393 -0.1934,-0.3496 -0.0654,-0.1104 -0.1299,-0.2158 -0.1943,-0.3135 l 1.2442,-0.6601 z" />
		<path
     style="fill:#ffcc00;fill-opacity:1"
     inkscape:connector-curvature="0"
     id="path5269"
     d="m 107.9727,112.8506 1.1133,-0.9121 7.0303,8.5742 -1.1133,0.9131 -3.2666,-3.9844 -2.8213,2.3135 3.2666,3.9844 -1.1133,0.9131 -7.0303,-8.5752 1.1143,-0.9141 2.9717,3.627 2.8213,-2.3135 -2.9727,-3.626 z" />
		<path
     style="fill:#ffcc00;fill-opacity:1"
     inkscape:connector-curvature="0"
     id="path5271"
     d="m 117.4248,113.7969 c 0.3105,0.2607 0.6123,0.4795 0.9063,0.6543 0.294,0.1748 0.582,0.291 0.8652,0.3506 0.2822,0.0596 0.5557,0.0439 0.8184,-0.042 0.2637,-0.0879 0.5186,-0.2715 0.7666,-0.5508 0.2051,-0.2314 0.3613,-0.4736 0.4668,-0.7295 0.1055,-0.2559 0.1738,-0.4492 0.2041,-0.5801 l 0.9951,0.543 c -0.0195,0.167 -0.0967,0.4102 -0.2285,0.7266 -0.1328,0.3184 -0.3477,0.6436 -0.6445,0.9795 -0.3896,0.4385 -0.7969,0.7363 -1.2227,0.8945 -0.4248,0.1563 -0.8643,0.2021 -1.3174,0.1348 -0.4541,-0.0684 -0.915,-0.2383 -1.3857,-0.5127 -0.4688,-0.2744 -0.9434,-0.625 -1.4219,-1.0498 -1.1563,-1.0264 -1.832,-1.9688 -2.0264,-2.8262 -0.1944,-0.8574 -0.0117,-1.6016 0.5479,-2.2305 0.6309,-0.7109 1.3438,-0.9756 2.1406,-0.7959 0.7959,0.1787 1.6768,0.6973 2.6416,1.5537 0.0879,0.0781 0.1777,0.1582 0.2695,0.2402 0.0918,0.0801 0.1816,0.167 0.2705,0.2607 l -2.6455,2.9796 z m -1.8037,-3.4649 c -0.3047,0.3447 -0.3535,0.7461 -0.1494,1.2051 0.2051,0.4609 0.5801,0.9609 1.126,1.5039 l 1.6895,-1.9023 c -0.582,-0.5176 -1.0957,-0.8672 -1.541,-1.0479 -0.4454,-0.1816 -0.8204,-0.1006 -1.1251,0.2412 z" />
		<path
     style="fill:#ffcc00;fill-opacity:1"
     inkscape:connector-curvature="0"
     id="path5273"
     d="m 126.5742,108.6143 c -0.4746,0.6318 -0.9609,0.9795 -1.459,1.0449 -0.4971,0.0654 -1.0723,-0.1328 -1.7246,-0.5957 l -8.1543,-5.7881 0.5996,-1.2607 8.377,5.9443 c 0.3047,0.2168 0.5674,0.3115 0.7891,0.2852 0.2207,-0.0254 0.4658,-0.1729 0.7344,-0.4404 l 0.8378,0.8105 z" />
		<path
     style="fill:#ffcc00;fill-opacity:1"
     inkscape:connector-curvature="0"
     id="path5275"
     d="m 131.6855,105.6758 -0.6602,1.2061 -9.7676,-5.3477 c 0.0313,-0.3242 0.1025,-0.6709 0.2148,-1.042 0.1113,-0.3701 0.2617,-0.7285 0.4512,-1.0742 0.2822,-0.5156 0.6133,-0.9082 0.9932,-1.1797 0.3799,-0.2725 0.7998,-0.4326 1.2568,-0.4805 0.458,-0.0469 0.957,0.0088 1.498,0.1641 0.54,0.1563 1.1191,0.4033 1.7363,0.7412 1.2441,0.6826 2.0859,1.4004 2.5225,2.1572 0.4365,0.7559 0.4102,1.583 -0.082,2.4814 -0.1182,0.2148 -0.2441,0.3955 -0.3779,0.54 -0.1348,0.1465 -0.2803,0.2725 -0.4375,0.3809 l 2.6524,1.4532 z m -3.705,-2.0293 c 0.2988,-0.1885 0.5322,-0.4375 0.7012,-0.7461 0.1289,-0.2344 0.1943,-0.4668 0.1982,-0.6953 0.004,-0.2285 -0.0674,-0.4648 -0.2129,-0.71 -0.1465,-0.2432 -0.3799,-0.4951 -0.6982,-0.7559 -0.3203,-0.2598 -0.7422,-0.5342 -1.2656,-0.8213 -1.0107,-0.5527 -1.8037,-0.8193 -2.3799,-0.8008 -0.5762,0.0195 -1.0176,0.3096 -1.3252,0.8701 -0.0566,0.1035 -0.1104,0.2197 -0.1631,0.3496 -0.0527,0.1279 -0.0957,0.2686 -0.1309,0.4199 l 5.2764,2.8898 z" />
		<path
     style="fill:#ffcc00;fill-opacity:1"
     inkscape:connector-curvature="0"
     id="path5277"
     d="m 131.1484,83.4639 c 0.834,0.2236 1.5742,0.502 2.2188,0.8359 0.6446,0.3339 1.1699,0.7227 1.5752,1.1689 0.4043,0.4453 0.6768,0.9443 0.8154,1.4951 0.1386,0.5508 0.1211,1.1514 -0.0527,1.7998 -0.1748,0.6494 -0.46,1.1768 -0.8564,1.584 -0.3964,0.4072 -0.8818,0.7012 -1.4561,0.8848 -0.5732,0.1826 -1.2227,0.2588 -1.9502,0.2295 -0.7266,-0.0293 -1.5068,-0.1572 -2.3408,-0.3809 -0.835,-0.2246 -1.5762,-0.5068 -2.2246,-0.8467 -0.6484,-0.3399 -1.1758,-0.7324 -1.5801,-1.1777 -0.4053,-0.4453 -0.6797,-0.9453 -0.8242,-1.498 -0.1445,-0.5518 -0.1289,-1.1533 0.0449,-1.8018 0.1748,-0.6494 0.4629,-1.1758 0.8643,-1.5811 0.4014,-0.4063 0.8896,-0.7002 1.4639,-0.8828 0.5732,-0.1826 1.2256,-0.2568 1.9551,-0.2207 0.7304,0.0372 1.5136,0.1671 2.3475,0.3917 z m -0.3984,1.4824 c -0.6494,-0.1738 -1.252,-0.292 -1.8105,-0.3535 -0.5576,-0.0615 -1.0547,-0.0518 -1.4902,0.0293 -0.4375,0.083 -0.8027,0.2412 -1.0977,0.4766 -0.295,0.2354 -0.5,0.5645 -0.6133,0.9854 -0.1133,0.4238 -0.1016,0.8115 0.0361,1.1631 0.1377,0.3506 0.374,0.6709 0.7109,0.9609 0.3369,0.2891 0.7607,0.5488 1.2725,0.7803 0.5127,0.2334 1.0928,0.4355 1.7422,0.6094 0.6484,0.1748 1.2529,0.29 1.8125,0.3467 0.5586,0.0557 1.0537,0.043 1.4854,-0.041 0.4307,-0.082 0.791,-0.2422 1.0811,-0.4795 0.29,-0.2363 0.4922,-0.5654 0.6055,-0.9883 0.1133,-0.4219 0.1035,-0.8096 -0.0283,-1.1592 -0.1318,-0.3506 -0.3643,-0.6699 -0.6953,-0.957 -0.3311,-0.2881 -0.7539,-0.5449 -1.2676,-0.7725 -0.5128,-0.2257 -1.0949,-0.4259 -1.7433,-0.6007 z" />
		<path
     style="fill:#ffcc00;fill-opacity:1"
     inkscape:connector-curvature="0"
     id="path5279"
     d="m 128.9482,78.2939 0.249,-2.0967 1.1758,0.1387 -0.248,2.0977 4.5908,0.5459 c 0.5723,0.0674 0.9844,0.0117 1.2363,-0.168 0.2529,-0.1787 0.3994,-0.4443 0.4414,-0.7939 0.0215,-0.1797 0.0146,-0.3545 -0.0186,-0.5244 -0.0332,-0.1709 -0.0801,-0.3184 -0.1406,-0.4443 l 1.1289,-0.1396 c 0.2021,0.4648 0.2744,0.9404 0.2168,1.4268 -0.0938,0.7842 -0.3828,1.3438 -0.8682,1.6777 -0.4854,0.3339 -1.2363,0.4414 -2.2529,0.3203 L 126.5458,79.3956 126.4707,78 l 2.4775,0.2939 z" />
		<path
     style="fill:#ffcc00;fill-opacity:1"
     inkscape:connector-curvature="0"
     id="path5281"
     d="m 137.7813,73.3477 -12.1748,0.1328 -0.2549,-1.373 4.0635,-0.0439 c -0.0664,-0.2031 -0.1221,-0.4238 -0.167,-0.6631 -0.0449,-0.2393 -0.0693,-0.4824 -0.0723,-0.7266 -0.004,-0.3535 0.0488,-0.6836 0.1572,-0.9941 0.1084,-0.3115 0.2949,-0.582 0.5596,-0.8145 0.2637,-0.2314 0.6221,-0.417 1.0732,-0.5557 0.4521,-0.1387 1.0146,-0.2109 1.6865,-0.2188 l 5.0713,-0.0547 0.0146,1.376 -4.959,0.0537 c -0.832,0.0098 -1.4395,0.123 -1.8203,0.3398 -0.3828,0.2178 -0.5703,0.6201 -0.5635,1.207 0.003,0.3086 0.0605,0.6553 0.1709,1.0381 l 7.2002,-0.0791 0.0148,1.3761 z" />
		<path
     style="fill:#ffcc00;fill-opacity:1"
     inkscape:connector-curvature="0"
     id="path5283"
     d="m 133.4141,63.1133 c 0.3984,-0.0742 0.7588,-0.1689 1.0801,-0.2832 0.3223,-0.1162 0.5957,-0.2637 0.8213,-0.4453 0.2256,-0.1816 0.3877,-0.4014 0.4873,-0.6602 0.0996,-0.2588 0.1201,-0.5723 0.0625,-0.9414 -0.0488,-0.3047 -0.1377,-0.5801 -0.2676,-0.8232 -0.1299,-0.2451 -0.2363,-0.4199 -0.3174,-0.5254 l 1.0508,-0.4248 c 0.1162,0.1221 0.2549,0.335 0.416,0.6387 0.1611,0.3047 0.2773,0.6768 0.3467,1.1201 0.0908,0.5791 0.0625,1.083 -0.0859,1.5117 -0.1484,0.4287 -0.3926,0.7969 -0.7334,1.1045 -0.3408,0.3066 -0.7656,0.5537 -1.2764,0.7422 -0.5098,0.1895 -1.0811,0.333 -1.7129,0.4316 -1.5283,0.2402 -2.6846,0.1631 -3.4707,-0.2305 -0.7852,-0.3955 -1.2441,-1.0088 -1.375,-1.8408 -0.1475,-0.9375 0.1016,-1.6582 0.7461,-2.1592 0.6445,-0.5 1.6035,-0.8506 2.8789,-1.0518 0.1162,-0.0186 0.2344,-0.0371 0.3555,-0.0557 0.1211,-0.0186 0.2461,-0.0332 0.374,-0.043 l 0.6201,3.9357 z m -3.8203,-0.8076 c 0.0713,0.4531 0.3496,0.7471 0.835,0.8809 0.4854,0.1338 1.1104,0.1631 1.876,0.085 l -0.3955,-2.5137 c -0.7695,0.1221 -1.3652,0.2959 -1.7881,0.5254 -0.423,0.2284 -0.5997,0.5702 -0.5274,1.0224 z" />
		<path
     style="fill:#ffcc00;fill-opacity:1"
     inkscape:connector-curvature="0"
     id="path5285"
     d="m 127.748,53.249 c -0.0508,0.3691 -0.0166,0.7598 0.0996,1.1699 0.1084,0.3799 0.2754,0.7139 0.502,1.0049 l 6.8945,-1.9629 0.377,1.3232 -7.7246,2.1992 c -0.2285,-0.2568 -0.4463,-0.5635 -0.6533,-0.9209 -0.207,-0.3574 -0.376,-0.7656 -0.5078,-1.2266 -0.0703,-0.2471 -0.125,-0.4971 -0.1641,-0.752 -0.0391,-0.2559 -0.0488,-0.502 -0.0283,-0.7412 l 1.205,-0.0936 z" />
		<path
     style="fill:#ffcc00;fill-opacity:1"
     inkscape:connector-curvature="0"
     id="path5287"
     d="m 132.0186,47.082 c -0.1533,-0.375 -0.377,-0.6152 -0.668,-0.7197 -0.291,-0.1064 -0.6094,-0.0879 -0.9551,0.0547 -0.2158,0.0889 -0.3857,0.2051 -0.5059,0.3467 -0.1202,0.1416 -0.2129,0.3008 -0.2793,0.4785 -0.0654,0.1758 -0.1104,0.3682 -0.1357,0.5742 -0.0234,0.2061 -0.0566,0.415 -0.0957,0.6279 -0.0293,0.208 -0.0781,0.4189 -0.1465,0.6309 -0.0684,0.212 -0.1641,0.416 -0.2861,0.6104 -0.1211,0.1943 -0.2783,0.375 -0.4697,0.54 -0.1914,0.165 -0.4355,0.3086 -0.7314,0.4307 -0.6406,0.2627 -1.2412,0.2764 -1.7998,0.0391 -0.5586,-0.2373 -0.9785,-0.6963 -1.2588,-1.376 -0.1172,-0.2871 -0.1924,-0.5732 -0.2236,-0.8594 -0.0313,-0.2871 -0.0371,-0.5332 -0.0176,-0.7383 l 1.1367,-0.1387 c -0.0254,0.2197 -0.0264,0.4268 -0.003,0.624 0.0234,0.1992 0.0781,0.4014 0.1631,0.6084 0.1309,0.3154 0.3252,0.5293 0.584,0.6426 0.2607,0.1113 0.5625,0.0977 0.9082,-0.0449 0.1973,-0.082 0.3535,-0.1855 0.4678,-0.3145 0.1143,-0.1279 0.2051,-0.2715 0.2725,-0.4316 0.0664,-0.1592 0.1191,-0.332 0.1592,-0.5156 0.04,-0.1826 0.0713,-0.373 0.0957,-0.5674 0.0313,-0.2305 0.0732,-0.4648 0.127,-0.7002 0.0538,-0.2354 0.1367,-0.46 0.25,-0.6748 0.1143,-0.2129 0.2686,-0.4131 0.4639,-0.5967 0.1953,-0.1836 0.4551,-0.3428 0.7813,-0.4775 0.6807,-0.2793 1.3105,-0.3047 1.8887,-0.0752 0.5791,0.2295 1.0264,0.7275 1.3428,1.4971 0.1631,0.3945 0.2549,0.7725 0.2764,1.1318 0.0205,0.3604 0.0195,0.6387 -0.004,0.833 l -1.1602,0.166 c 0.0176,-0.1807 0.0244,-0.417 0.0195,-0.71 -0.005,-0.291 -0.0707,-0.5908 -0.1966,-0.8955 z" />
	</g>
</svg>